<svg width="398" height="616" viewBox="0 0 398 616" fill="none" xmlns="http://www.w3.org/2000/svg">
<path d="M323.693 135.17H321.901V38.5605C321.901 17.2558 304.353 0 282.706 0H63.1602C41.5134 0 23.9661 17.2719 23.9661 38.5605V78.6071H23.8294H23.4436C22.1815 78.5982 21.1499 79.6112 21.1366 80.8725V100.153C21.1499 101.414 22.1815 102.427 23.4436 102.418H23.8696H24.0063V122.108H23.2989C22.6935 122.104 22.1111 122.34 21.68 122.765C21.2488 123.19 21.0042 123.768 21 124.374V161.239C21.0088 162.5 22.0368 163.517 23.2989 163.512H24.0063V177.973H23.3954C22.7885 177.966 22.2041 178.201 21.7712 178.627C21.3384 179.052 21.0927 179.631 21.0884 180.238V217.465C21.0927 218.071 21.3384 218.651 21.7712 219.076C22.2041 219.501 22.7885 219.737 23.3954 219.73H24.0063V557.44C24.0063 578.744 41.5536 596 63.2003 596H282.698C304.345 596 321.892 578.728 321.892 557.44V207.423H323.693C324.955 207.432 325.987 206.419 326 205.158V137.436C325.987 136.175 324.955 135.162 323.693 135.17Z" fill="url(#paint0_linear_0_1207)"/>
<g opacity="0.9">
<rect x="314.286" y="136.371" width="8.67422" height="71.2499" rx="2.29" fill="#E5E7EB"/>
<rect x="25.8457" y="80.555" width="4.8727" height="23.4558" rx="2.29" fill="#E5E7EB"/>
<rect x="25.6685" y="123.496" width="5.49287" height="40.8231" rx="2.29" fill="#E5E7EB"/>
<rect x="25.7571" y="178.606" width="5.22708" height="41.176" rx="2.29" fill="#E5E7EB"/>
<rect x="28.6002" y="3.0401" width="290.365" height="590.767" rx="36" fill="white"/>
<rect x="145.779" y="20.5919" width="40.5522" height="8.19831" rx="3.87" fill="#E5E7EB"/>
<path d="M197.123 29.3437C199.703 29.3437 201.795 27.2606 201.795 24.691C201.795 22.1214 199.703 20.0384 197.123 20.0384C194.543 20.0384 192.452 22.1214 192.452 24.691C192.452 27.2606 194.543 29.3437 197.123 29.3437Z" fill="#E5E7EB"/>
</g>
<path d="M277.987 19H244.813V23.0098C244.808 33.4507 236.324 41.9123 225.859 41.9123H120.092C109.627 41.9123 101.142 33.4507 101.137 23.0098V19H70.0135C57.3035 19 47 29.2797 47 41.9604V553.04C47 565.72 57.3035 576 70.0135 576H277.987C290.697 576 301 565.72 301 553.04V41.9604C301 29.2797 290.697 19 277.987 19Z" fill="#ECECF3"/>
<g opacity="0.4">
<path d="M371.516 565.892C385.992 565.892 397.727 563.832 397.727 561.292C397.727 558.751 385.992 556.692 371.516 556.692C357.04 556.692 345.305 558.751 345.305 561.292C345.305 563.832 357.04 565.892 371.516 565.892Z" fill="#5E81F4"/>
<path d="M382.349 553.767C383.544 552.755 384.417 551.393 384.854 549.858C385.176 548.3 384.533 546.433 383.104 545.867C381.498 545.233 379.787 546.383 378.486 547.533C377.185 548.683 375.7 550.033 373.997 549.783C375.789 548.106 376.592 545.57 376.109 543.117C376.037 542.622 375.834 542.158 375.523 541.775C374.632 540.783 373.018 541.208 371.958 541.983C368.569 544.483 367.621 549.242 367.597 553.542C367.26 551.992 367.549 550.375 367.541 548.783C367.533 547.192 367.107 545.45 365.815 544.567C365.008 544.121 364.102 543.903 363.189 543.933C361.663 543.875 359.977 544.033 358.925 545.183C357.632 546.625 357.969 549.033 359.093 550.617C360.217 552.2 361.928 553.192 363.51 554.283C364.77 555.066 365.845 556.131 366.658 557.4C366.755 557.577 366.833 557.764 366.891 557.958H376.447C378.588 556.844 380.573 555.434 382.349 553.767Z" fill="#5E81F4"/>
</g>
<rect x="67" y="62" width="42" height="42" fill="#D6D8E0"/>
<rect x="139" y="65" width="86" height="7" fill="#D6D8E0"/>
<rect x="138" y="79" width="142" height="7" fill="#D6D8E0"/>
<rect x="138" y="92" width="142" height="7" fill="#D6D8E0"/>
<rect x="67" y="136" width="42" height="42" fill="#D6D8E0"/>
<rect x="139" y="141" width="86" height="7" fill="#D6D8E0"/>
<rect x="138" y="154" width="142" height="7" fill="#D6D8E0"/>
<rect x="138" y="168" width="142" height="7" fill="#D6D8E0"/>
<rect x="68" y="212" width="42" height="42" fill="#D6D8E0"/>
<rect x="139" y="216" width="86" height="7" fill="#D6D8E0"/>
<rect x="138" y="229" width="142" height="7" fill="#D6D8E0"/>
<rect x="138" y="242" width="142" height="7" fill="#D6D8E0"/>
<rect x="68" y="286" width="42" height="42" fill="#D6D8E0"/>
<rect x="140" y="291" width="86" height="7" fill="#D6D8E0"/>
<rect x="139" y="304" width="142" height="7" fill="#D6D8E0"/>
<rect x="139" y="318" width="142" height="7" fill="#D6D8E0"/>
<rect x="68" y="362" width="42" height="42" fill="#D6D8E0"/>
<rect x="140" y="367" width="86" height="7" fill="#D6D8E0"/>
<rect x="139" y="380" width="142" height="7" fill="#D6D8E0"/>
<rect x="139" y="393" width="142" height="7" fill="#D6D8E0"/>
<rect x="68" y="438" width="42" height="42" fill="#D6D8E0"/>
<rect x="140" y="441" width="86" height="7" fill="#D6D8E0"/>
<rect x="139" y="455" width="142" height="7" fill="#D6D8E0"/>
<rect x="139" y="468" width="142" height="7" fill="#D6D8E0"/>
<rect x="69" y="512" width="42" height="42" fill="#D6D8E0"/>
<rect x="140" y="517" width="86" height="7" fill="#D6D8E0"/>
<rect x="139" y="530" width="142" height="7" fill="#D6D8E0"/>
<rect x="139" y="544" width="142" height="7" fill="#D6D8E0"/>
<rect y="186" width="350" height="87" fill="url(#paint1_linear_0_1207)"/>
<rect x="2" y="189" width="347" height="82" fill="white"/>
<rect x="68" y="209" width="42" height="42" fill="#5E81F4"/>
<g opacity="0.5">
<rect x="139.449" y="211.272" width="85.8739" height="7.784" fill="#5E81F4"/>
<rect x="139.449" y="224.896" width="141.495" height="7.784" fill="#5E81F4"/>
<rect x="139.449" y="238.52" width="141.495" height="7.784" fill="#5E81F4"/>
</g>
<path fill-rule="evenodd" clip-rule="evenodd" d="M115.812 260.23C118.445 258.644 122.084 259.357 124.274 261.511C126.418 263.8 127.375 266.948 126.866 270.035C126.73 271.433 126.188 272.761 125.304 273.856C124.389 274.886 123.137 275.463 121.863 276.051C121.512 276.212 121.159 276.375 120.812 276.548C116.754 278.626 113.656 282.177 112.157 286.465C110.969 289.864 110.237 293.346 109.507 296.816C108.565 301.299 107.626 305.762 105.716 310.001C104.438 312.838 103.068 315.631 101.699 318.423C99.4381 323.034 97.1789 327.641 95.3384 332.432C94.9713 333.392 94.6183 334.359 94.2652 335.327C93.015 338.752 91.7631 342.182 89.8798 345.305C88.6902 347.259 87.1736 348.996 85.3954 350.44C85.5806 353.26 85.6369 356.088 85.6369 358.868C84.5268 358.845 83.4832 359.393 82.8755 360.318C82.2857 361.231 81.8784 362.248 81.6759 363.314C81.1115 365.638 81.1921 368.042 81.2728 370.446C81.3498 372.741 81.4268 375.035 80.9432 377.261C78.2185 389.962 79.054 403.164 83.3585 415.425C84.4535 418.541 85.8382 428.819 84.6708 431.903C81.2699 431.542 78.17 433.07 75.0356 434.615C74.1334 435.06 73.2284 435.506 72.3126 435.909C71.971 438.341 72.1689 440.818 72.8923 443.167C74.3253 447.388 74.3253 451.963 74.3253 456.433L74.1321 489.486C74.1079 493.683 74.0758 497.929 73.013 501.983C72.6185 503.467 72.089 504.961 71.5566 506.463C70.4486 509.59 69.3276 512.753 69.382 515.946C69.4649 520.896 68.3432 525.752 67.2222 530.605C66.0557 535.656 64.8898 540.703 65.0828 545.85C65.1373 547.161 65.2764 548.465 65.4156 549.769C65.4822 550.393 65.5488 551.017 65.6061 551.642C66.0895 556.761 65.9598 561.919 65.2197 567.007C64.7313 570.387 63.9764 573.749 63.2224 577.107C61.7141 583.823 60.2093 590.524 60.848 597.328C60.9124 598.017 61.1459 598.962 61.8061 599.187C60.9902 600.105 60.1476 600.992 59.2781 601.846C59.4517 602.14 59.6915 602.39 59.9785 602.575C60.9295 603.071 61.9811 603.344 63.054 603.376C64.3114 603.409 65.5316 603.807 66.5642 604.522C67.3272 605.235 67.8407 606.173 68.0295 607.198C68.6157 609.236 68.2617 611.429 67.0633 613.182C66.3472 614.084 65.4102 614.787 64.3421 615.225C60.6145 616.811 56.3556 615.657 52.475 614.488L37.3875 609.937C36.4603 609.746 35.6047 609.302 34.9158 608.656C34.5975 608.287 34.3884 607.838 34.312 607.358C30.9225 608.191 27.2352 607.182 23.8457 606.156L8.64548 601.574C7.71834 601.382 6.86276 600.939 6.17383 600.292C5.62209 599.621 5.39271 598.743 5.54586 597.889L5.21577 597.761C4.05643 597.232 2.76022 596.223 3.08226 594.989C3.19501 594.549 3.49722 594.205 3.80211 593.858C4.04151 593.585 4.28256 593.311 4.43482 592.986C4.75784 592.011 4.54404 590.938 3.87126 590.159C3.60088 589.796 3.29176 589.464 2.98293 589.133C2.60206 588.724 2.22164 588.316 1.91487 587.851C0.398901 585.54 1.0813 582.602 1.72601 579.825C1.82772 579.387 1.92848 578.953 2.01953 578.527C2.8018 574.834 2.75223 571.051 2.7026 567.262C2.66232 564.188 2.622 561.111 3.0259 558.075C3.23691 556.5 3.56663 554.945 3.89622 553.39C4.0445 552.69 4.19276 551.991 4.33016 551.29C5.26579 545.931 5.88409 540.522 6.18189 535.092C6.36905 532.62 6.71541 530.16 7.06083 527.707C7.80009 522.457 8.535 517.238 7.69547 511.996C7.07572 507.484 6.80656 502.931 6.89037 498.378C6.80135 495.48 6.93053 492.58 7.27682 489.702C7.41432 488.737 7.60223 487.78 7.79012 486.823C8.0203 485.651 8.25044 484.48 8.38785 483.293C8.57978 480.868 8.6228 478.434 8.51667 476.003C8.4062 470.592 8.90853 465.185 10.0141 459.885C10.739 456.578 11.762 453.331 12.7838 450.088C14.0091 446.199 15.2329 442.315 15.9397 438.336L14.6515 438.64C14.6056 434.055 17.8788 425.111 20.0839 419.087C20.5829 417.723 21.0273 416.509 21.366 415.529C21.6336 414.875 21.7966 414.183 21.8491 413.478C21.7366 412.555 21.5645 411.64 21.3338 410.738C21.1913 409.551 21.5376 408.401 21.8858 407.246C22.1082 406.507 22.3315 405.766 22.4288 405.011C22.5318 403.647 22.4287 402.275 22.1228 400.941C20.8416 393.81 19.2417 386.742 17.6401 379.666L17.6143 379.552C16.9043 376.983 16.6616 374.308 16.8977 371.653C17.2723 368.802 16.3919 365.929 14.4824 363.771C13.7772 363.124 13.177 362.373 12.7032 361.544C12.4321 360.831 12.3116 360.07 12.3489 359.309C12.3822 356.011 12.867 352.734 13.7901 349.567C12.3811 347.012 11.8578 343.872 11.4472 340.915L11.4338 340.818C10.5365 334.298 9.63595 327.753 9.67601 321.177C9.60503 317.652 10.0913 314.137 11.1171 310.762C11.8776 308.682 12.7982 306.662 13.8706 304.722C14.6366 303.256 15.3961 301.776 16.1579 300.291C19.6156 293.552 23.1216 286.719 27.5089 280.634C28.7196 278.954 28.4591 276.809 28.2001 274.676C28.1095 273.93 28.0191 273.185 27.992 272.462C27.8632 269.098 29.1996 265.877 30.52 262.777C31.1846 260.874 32.2125 259.117 33.5471 257.602C34.4545 256.608 35.7324 256.029 37.0815 256C38.6178 256.191 39.9967 257.032 40.8655 258.307C42.8292 260.971 43.6435 264.304 43.1278 267.568C42.5961 270.806 41.1783 273.835 39.0299 276.324C37.9936 277.579 36.8066 278.704 35.4955 279.672C34.1483 283.881 32.8065 288.086 31.47 292.289C29.3848 298.978 27.2593 305.692 24.2241 312.02C24.1497 312.177 24.0745 312.335 23.9991 312.492C23.1942 314.175 22.3722 315.895 22.2838 317.748C22.1855 319.657 22.866 321.492 23.5331 323.292C23.6304 323.554 23.7273 323.816 23.8216 324.077C25.3613 328.371 26.2355 332.874 26.414 337.431C26.6492 337.532 26.8754 337.652 27.0903 337.791C28.3081 338.586 29.1242 339.833 29.9382 341.076C30.814 342.414 31.6874 343.748 33.056 344.512C34.1034 345.093 35.2948 345.258 36.4902 345.424C37.0591 345.503 37.6289 345.582 38.1845 345.706L38.6515 345.834C38.6691 345.756 38.6886 345.679 38.708 345.602C38.7686 345.362 38.8286 345.123 38.8286 344.881C38.845 344.676 38.845 344.469 38.8286 344.264C34.7231 342.015 31.2748 338.744 28.8212 334.771C28.2979 334.039 27.8982 333.228 27.6377 332.368C27.4203 331.341 27.3794 330.284 27.517 329.244C27.6446 325.774 28.1356 322.326 28.9822 318.958C29.8474 315.576 31.726 312.536 34.3683 310.242C35.0351 309.704 35.7533 309.235 36.4709 308.767C37.1743 308.308 37.8771 307.849 38.5307 307.326C39.5673 306.494 40.4723 305.504 41.3731 304.519C42.711 303.056 44.0396 301.602 45.7766 300.693C49.6124 298.821 54.2466 299.999 56.7098 303.473C57.1029 304.252 57.6507 304.944 58.32 305.507C58.5435 305.662 58.7884 305.772 59.0312 305.881C59.3044 306.004 59.575 306.126 59.8094 306.308C60.7031 307.021 60.7433 308.367 60.4616 309.465C59.9095 311.72 59.5991 314.026 59.5357 316.346C64.9266 322.606 64.9471 331.836 59.584 338.12C59.584 339.61 59.6081 341.1 59.6484 342.582C59.652 342.711 59.6621 342.839 59.6722 342.966C59.6845 343.122 59.6967 343.277 59.6967 343.431C60.6257 343.11 61.457 342.559 62.112 341.829C62.5046 341.344 62.7552 340.756 63.0048 340.17C63.3285 339.411 63.6504 338.656 64.2777 338.136C65.0703 337.614 65.9748 337.285 66.9184 337.174C69.2626 336.643 71.4611 335.607 73.3592 334.138C73.6153 333.94 73.8734 333.733 74.134 333.523C75.3809 332.52 76.687 331.469 78.1254 331.19C81.1274 325.593 84.6303 320.276 88.5917 315.305C89.596 314.124 90.5109 312.871 91.329 311.556C92.5029 309.518 93.1177 307.238 93.7334 304.954C94.0255 303.87 94.3178 302.786 94.6701 301.726C96.0324 297.621 98.3013 293.874 100.564 290.138C103.382 285.484 106.19 280.847 107.222 275.555C107.686 273.179 108.871 271.022 110.056 268.866C110.597 267.882 111.138 266.898 111.609 265.893C112.64 263.739 113.767 261.455 115.812 260.23ZM31.0352 591.352C30.7293 591.745 30.4073 592.105 30.0772 592.466C30.2785 593.168 30.6916 593.791 31.2607 594.252C32.2117 594.747 33.2633 595.021 34.3361 595.053C34.864 595.105 35.3882 595.188 35.9061 595.302C36.0631 593.989 36.1614 592.662 36.2581 591.354C36.2854 590.986 36.3125 590.619 36.3408 590.255C36.7756 584.815 37.6209 579.416 38.4743 574.025C38.712 572.553 38.9161 571.049 39.1218 569.534C39.7034 565.25 40.297 560.876 41.6947 556.905C44.7783 548.133 47.902 539.105 47.5075 529.82C47.4612 528.723 47.3644 527.626 47.2675 526.529C47.179 525.527 47.0905 524.526 47.0406 523.524C46.9454 521.767 46.966 519.998 46.9865 518.23C47.0269 514.765 47.0671 511.306 46.2355 507.959C46.0073 507.031 45.7117 506.118 45.4162 505.204C44.982 503.862 44.5478 502.521 44.3274 501.133C44.0885 499.005 44.0616 496.858 44.2469 494.725C44.5964 487.376 43.9793 480.013 42.4113 472.823C40.9299 474.762 40.4388 477.293 39.996 479.696C38.9869 485.122 37.9779 490.551 36.9688 495.982C36.8169 496.801 36.6665 497.624 36.5156 498.45C34.8835 507.383 33.1921 516.641 28.8293 524.509C29.5056 527.609 30.1577 530.918 29.0547 533.89C28.8147 534.546 28.4965 535.157 28.1792 535.766C27.8686 536.362 27.5587 536.957 27.3237 537.591C26.7462 539.137 26.641 540.79 26.5355 542.446C26.4939 543.099 26.4523 543.753 26.3818 544.4C26.2248 545.872 25.9302 547.332 25.6377 548.781C24.9704 552.087 24.3139 555.339 25.3271 558.564C26.8408 563.345 27.8235 568.277 28.2577 573.272C28.3337 574.663 28.495 576.049 28.7407 577.421C28.8614 578.014 29.0173 578.584 29.1722 579.15C29.3481 579.792 29.5226 580.43 29.6424 581.09C29.9704 582.863 29.8933 584.686 29.417 586.425C29.0518 587.39 28.8294 588.402 28.7568 589.43C28.781 590.455 30.0208 591.192 31.0352 591.352Z" fill="url(#paint2_linear_0_1207)"/>
<path d="M62.7732 603.281C64.0229 603.317 65.2358 603.717 66.2666 604.434C67.0239 605.152 67.5348 606.096 67.7249 607.129C68.3073 609.183 67.9548 611.394 66.7634 613.159C66.0495 614.066 65.1167 614.77 64.0552 615.205C60.3454 616.828 56.1068 615.651 52.2448 614.474L37.1173 609.856C36.1952 609.665 35.3436 609.218 34.6575 608.565C33.805 607.403 33.7792 605.819 34.5934 604.629C35.407 603.484 36.5158 602.588 37.7984 602.039C42.5097 599.718 47.814 599.182 53.022 599.085C54.945 599.044 56.836 598.622 58.142 600.124C58.8311 600.936 58.7109 601.796 59.7445 602.486C60.6811 602.981 61.717 603.253 62.7732 603.281Z" fill="#3F3D56"/>
<path d="M34.7726 596.275C36.0223 596.303 37.2365 596.701 38.2659 597.42C39.0188 598.142 39.5289 599.085 39.7242 600.116C40.3078 602.173 39.9552 604.386 38.7627 606.151C38.0493 607.061 37.1165 607.769 36.0545 608.206C32.3449 609.831 28.1064 608.645 24.2444 607.467L9.11727 602.846C8.19401 602.658 7.34157 602.21 6.6575 601.554C5.80502 600.391 5.77923 598.806 6.5934 597.615C7.40514 596.468 8.51445 595.571 9.79831 595.024C14.5095 592.701 19.8056 592.165 24.9816 592.067C26.8965 592.067 28.7954 591.604 30.1014 593.107C30.7905 593.919 30.6703 594.788 31.7039 595.471C32.6534 595.971 33.7028 596.246 34.7726 596.275Z" fill="#3F3D56"/>
<path d="M47.3683 429.867C38.4648 428.967 29.5083 428.714 20.5686 429.11C19.9784 429.103 19.3912 429.195 18.8316 429.384C16.8624 430.189 16.5582 432.783 16.3661 434.909C15.6137 443.502 11.8435 451.516 9.96235 459.948C8.86196 465.243 8.36247 470.647 8.47347 476.056C8.57803 478.472 8.53525 480.893 8.3454 483.304C8.09725 485.462 7.54493 487.564 7.24075 489.747C6.89645 492.622 6.76801 495.519 6.85652 498.413C6.77398 502.956 7.04161 507.498 7.65699 512C8.88171 519.683 6.73645 527.302 6.15211 535.066C5.85556 540.491 5.24079 545.894 4.31102 551.246C3.87077 553.501 3.31844 555.74 3.01426 558.019C2.11773 564.792 3.4225 571.775 2.01367 578.452C1.34928 581.576 0.164586 585.088 1.90961 587.762C2.46194 588.607 3.2544 589.26 3.85476 590.065C4.52235 590.843 4.73509 591.916 4.41509 592.892C4.07088 593.625 3.27041 594.108 3.07029 594.889C2.75011 596.122 4.03886 597.136 5.19154 597.66C13.8766 601.598 25.0752 598.82 30.9347 591.257C29.9261 591.096 28.6934 590.363 28.6693 589.34C28.7415 588.312 28.9626 587.3 29.3257 586.336C29.8 584.599 29.8766 582.776 29.5499 581.005C29.3257 579.772 28.9095 578.588 28.6533 577.34C28.4091 575.971 28.2487 574.589 28.1731 573.2C27.7413 568.211 26.7641 563.284 25.2593 558.51C23.8105 553.879 25.7957 549.192 26.308 544.36C26.5561 542.081 26.444 539.713 27.2445 537.562C27.7168 536.282 28.4932 535.146 28.9655 533.866C30.0622 530.894 29.4138 527.6 28.7414 524.499C33.4802 515.906 35.0491 505.669 36.8341 496.005C37.8374 490.582 38.8407 485.159 39.8439 479.736C40.2842 477.32 40.7725 474.815 42.2453 472.874C43.8046 480.056 44.4183 487.414 44.0704 494.757C43.8889 496.872 43.9157 499.001 44.1504 501.111C44.5187 503.439 45.4872 505.637 46.0476 507.933C47.2963 512.974 46.5679 518.282 46.848 523.476C46.9521 525.57 47.2243 527.664 47.3123 529.766C47.7045 539.036 44.5987 548.057 41.5329 556.811C39.6518 562.183 39.2356 568.288 38.331 573.909C37.4825 579.297 36.642 584.685 36.2098 590.121C35.8176 595.115 35.6494 600.519 32.5596 604.441C35.3773 606.285 38.299 608.162 41.5969 608.798C45.4511 609.403 49.3944 608.637 52.7475 606.632C56.0752 604.624 59.0504 602.077 61.5527 599.093C60.8963 598.868 60.6642 597.918 60.6001 597.233C59.6476 587.045 63.4898 577.098 64.9467 566.951C65.6825 561.868 65.8115 556.714 65.3309 551.6C65.1548 549.675 64.8906 547.759 64.8106 545.826C64.4344 535.742 69.2532 526.037 69.0851 515.954C69.0051 511.235 71.4865 506.571 72.6952 502.005C73.7519 497.978 73.7839 493.718 73.8079 489.53L74 456.509C74 452.039 74 447.473 72.5752 443.253C70.8141 438.187 72.8233 432.356 73.1275 427C64.8105 429.643 56.0585 430.617 47.3683 429.867Z" fill="#3F3D56"/>
<path d="M76.5454 337.462C79.9113 330.528 84.0227 323.987 88.8057 317.957C89.8025 316.778 90.7125 315.527 91.5284 314.214C93.2501 311.213 93.7626 307.672 94.8517 304.381C97.8947 295.152 105.486 287.739 107.336 278.196C108.009 274.735 110.203 271.742 111.7 268.516C112.725 266.354 113.847 264.079 115.881 262.869C118.499 261.255 122.119 262.006 124.297 264.159C126.421 266.439 127.371 269.585 126.868 272.67C126.737 274.071 126.196 275.402 125.314 276.494C124.153 277.808 122.415 278.405 120.846 279.196C116.815 281.259 113.731 284.811 112.237 289.11C109.562 296.903 109.226 305.147 105.831 312.657C102.435 320.167 98.4473 327.387 95.5083 335.075C93.8507 339.439 92.5134 343.948 90.0789 347.982C87.6445 352.015 83.8167 355.395 79.2201 356C79.2265 353.085 78.7723 350.188 77.8748 347.417C76.9058 344.214 75.088 340.431 76.5454 337.462Z" fill="#A0616A"/>
<path d="M25.9558 342.633C26.1639 336.945 25.2682 331.27 23.317 325.915C22.5677 323.864 21.6474 321.78 21.7614 319.6C21.8591 317.581 22.8446 315.714 23.7242 313.888C26.7947 307.573 28.9448 300.871 31.0542 294.194L35.1265 281.612C36.4505 280.646 37.6511 279.525 38.7019 278.273C40.8712 275.793 42.3057 272.77 42.8475 269.536C43.3681 266.277 42.5438 262.947 40.5589 260.293C39.6781 259.018 38.2823 258.182 36.731 258C35.3649 258.023 34.07 258.606 33.1555 259.609C31.806 261.119 30.7659 262.873 30.0932 264.774C28.7575 267.863 27.4055 271.081 27.5358 274.428C27.6417 277.211 28.7005 280.317 27.0472 282.577C21.6311 289.987 17.5425 298.506 13.2504 306.607C12.1657 308.542 11.2345 310.556 10.465 312.633C9.42597 316.005 8.93392 319.519 9.00711 323.043C8.96639 329.64 9.88672 336.197 10.7989 342.737C11.369 346.824 12.1346 351.281 15.2702 354C18.5362 349.905 21.8103 345.867 25.9558 342.633Z" fill="#A0616A"/>
<path d="M46.5 345C55.6127 345 63 337.613 63 328.5C63 319.387 55.6127 312 46.5 312C37.3873 312 30 319.387 30 328.5C30 337.613 37.3873 345 46.5 345Z" fill="#A0616A"/>
<path d="M38.5601 346.53C38.1609 349.499 36.5563 352.144 34.9916 354.703C34.0416 356.282 32.8441 357.964 31 358.138C35.7951 360.633 40.8345 362.638 46.0403 364.123C47.813 364.711 49.6712 365.007 51.5408 365C53.1229 364.883 54.6716 364.49 56.1151 363.839C62.5146 361.065 67.2668 355.531 69 348.836C66.9402 348.89 64.8803 348.734 62.8529 348.37C61.7193 348.164 60.4979 347.833 59.8353 346.909C59.3751 346.105 59.1589 345.186 59.2126 344.264C59.1328 341.531 59.1328 338.799 59.2126 336.067C55.1428 335.808 51.0598 336.303 47.174 337.528C45.5773 338.041 43.9807 338.665 42.3441 339.068C41.3382 339.312 38.5681 339.068 37.8256 339.644C36.7 340.521 38.8555 344.516 38.5601 346.53Z" fill="#A0616A"/>
<path d="M45.6507 356.837C45.2717 352.351 42.0719 348.61 37.7043 347.547C35.9901 347.17 34.1396 347.21 32.6016 346.359C29.9742 344.891 29.1811 341.313 26.6658 339.668C24.1505 338.024 20.5618 338.938 18.367 341.024C16.1721 343.11 15.0586 346.063 14.1614 348.951C12.8182 352.866 12.0912 356.966 12.0066 361.105C11.9694 361.865 12.0894 362.624 12.3591 363.335C12.8328 364.162 13.4298 364.911 14.1294 365.558C16.0273 367.695 16.9043 370.552 16.5326 373.388C16.2978 376.033 16.5392 378.698 17.2455 381.258C18.8476 388.326 20.4497 395.402 21.7314 402.534C22.0317 403.849 22.1343 405.201 22.0358 406.545C21.7874 408.471 20.714 410.308 20.9463 412.234C21.1758 413.133 21.3471 414.047 21.459 414.969C21.4067 415.667 21.2445 416.352 20.9784 416.999C19.152 422.294 14.2416 434.408 14.2976 440C22.8288 437.81 35.4053 437.32 44.2088 437.288C46.6348 437.255 49.0607 437.362 51.4744 437.609C57.266 438.227 63.1937 439.92 68.8091 438.355C74.0159 436.903 78.638 432.739 84.029 433.269C85.1906 430.196 83.8128 419.967 82.7233 416.871C78.4408 404.678 77.6091 391.536 80.3202 378.899C81.3055 374.358 79.9517 369.545 81.0491 365.028C81.2493 363.965 81.6547 362.951 82.2427 362.044C82.8492 361.121 83.8873 360.575 84.9903 360.6C85.0901 353.347 84.4188 346.105 82.9877 338.995C82.451 336.467 81.3375 333.483 78.7982 333.05C76.5072 332.665 74.5766 334.598 72.7422 336.026C70.8484 337.483 68.6623 338.512 66.3338 339.043C65.3955 339.15 64.4955 339.477 63.7064 339.997C62.601 340.912 62.4487 342.565 61.5516 343.68C59.9495 345.677 56.3688 345.501 55.2313 347.803C54.9752 348.49 54.7717 349.196 54.6225 349.913C54.0853 351.278 53.1711 352.46 51.987 353.323C50.1965 355 48.0198 356.207 45.6507 356.837Z" fill="#5E81F4"/>
<path d="M60.8461 311.57C61.1262 310.477 61.0862 309.176 60.1978 308.441C59.7576 308.098 59.1893 307.97 58.7171 307.643C58.0516 307.085 57.5069 306.398 57.1164 305.623C54.6439 302.179 50.0374 301.021 46.2234 302.886C43.3341 304.394 41.5813 307.412 39.0202 309.455C37.7076 310.509 36.1949 311.291 34.8823 312.337C32.2586 314.606 30.3907 317.619 29.5278 320.974C28.6885 324.312 28.2029 327.728 28.0792 331.167C27.9424 332.199 27.983 333.246 28.1992 334.264C28.4607 335.108 28.8581 335.903 29.3758 336.619C32.009 340.61 35.4986 344.242 39.8605 346.294C44.2225 348.345 49.5289 348.689 53.8349 346.541C54.2666 346.36 54.6383 346.062 54.9074 345.679C55.1542 345.097 55.2102 344.452 55.0674 343.835C54.8399 341.398 55.3265 338.946 56.4681 336.779C57.2684 335.182 58.461 333.809 59.1093 332.149C59.6974 330.298 59.9521 328.358 59.8616 326.418C59.9256 321.413 59.5815 316.408 60.8461 311.57Z" fill="#2D293D"/>
<rect x="68" y="209" width="42" height="42" fill="#5E81F4"/>
<path d="M94.3466 243.777C93.7718 245.027 92.8179 246.002 91.6585 246.526C90.9733 246.809 90.2515 246.963 89.5221 246.982C88.7338 247.047 87.9419 246.937 87.1914 246.658C86.1918 246.214 85.3337 245.443 84.7286 244.442C84.1311 243.442 83.6506 242.359 83.2991 241.22C83.0631 240.651 82.964 240.023 83.0117 239.398C83.6256 239.314 84.1845 238.958 84.5655 238.409C84.7913 237.856 84.8054 237.222 84.6043 236.657C84.5577 236.482 84.5111 236.316 84.4567 236.158C84.3402 235.773 83.9362 235.046 84.2159 234.722C84.4955 234.398 85.1481 234.407 85.4045 234.275C86.1644 233.763 86.9755 233.355 87.8207 233.058C88.5869 232.943 89.3657 232.999 90.1125 233.224C90.2146 233.243 90.3124 233.285 90.4 233.347C90.4981 233.439 90.5709 233.56 90.6097 233.697C90.8273 234.293 90.9516 234.95 91.1225 235.563C91.2716 236.205 91.5661 236.794 91.9771 237.27C92.3319 237.61 92.7334 237.882 93.1657 238.076L94.2068 238.61C94.3894 238.692 94.5558 238.814 94.6962 238.969C94.8294 239.181 94.9098 239.429 94.9293 239.687C95.1221 241.085 94.9182 242.517 94.3466 243.777Z" fill="#A0616A"/>
<path opacity="0.1" d="M91 236.736C89.3005 238.085 86.6252 238.39 84.485 237.478C84.4384 237.359 84.3918 237.247 84.3374 237.14C84.2209 236.879 83.8172 236.386 84.0967 236.167C84.3763 235.947 85.0285 235.953 85.2848 235.864C86.0443 235.517 86.855 235.24 87.6998 235.039C88.4656 234.961 89.2441 235 89.9905 235.152C90.0926 235.165 90.1903 235.193 90.2778 235.235C90.3759 235.297 90.4487 235.38 90.4875 235.472C90.7049 235.894 90.8292 236.321 91 236.736Z" fill="black"/>
<path d="M87.5 238C90.5376 238 93 235.538 93 232.5C93 229.462 90.5376 227 87.5 227C84.4624 227 82 229.462 82 232.5C82 235.538 84.4624 238 87.5 238Z" fill="#A0616A"/>
<path d="M104 250H77.3725C76.5572 248.255 75.8234 246.501 75 244.756C75.0879 244.341 75.2507 243.943 75.481 243.582C75.7204 243.224 76.1301 243.003 76.5735 242.995C76.81 242.995 77.079 243.081 77.2502 242.917C77.4214 242.752 77.3644 242.619 77.4866 242.51C77.6089 242.4 77.9024 242.4 78.1307 242.416C78.6284 242.431 79.1005 242.204 79.3863 241.813C79.4736 241.667 79.5805 241.533 79.7042 241.414C79.9186 241.314 80.1513 241.255 80.3891 241.242C81.0495 241.101 81.4408 240.459 81.9381 240.06C82.1822 239.795 82.5659 239.694 82.9165 239.802C82.9963 239.841 83.066 239.897 83.1203 239.966C83.2541 240.163 83.3456 240.384 83.3894 240.616C83.6846 241.915 84.4358 243.079 85.5173 243.911C86.6811 244.755 88.1805 245.049 89.5962 244.71C91.0118 244.371 92.1918 243.436 92.806 242.165C93.2001 241.219 93.426 240.217 93.4746 239.199C93.4746 239.144 93.4746 239.113 93.4746 239.066C94.1462 238.906 94.8571 239.041 95.415 239.434C95.9561 239.832 96.5347 240.18 97.1434 240.475C97.869 240.749 98.774 240.749 99.2713 241.257C99.4833 241.461 99.63 241.743 99.8991 241.868C100.066 241.931 100.242 241.97 100.421 241.985C101.344 242.224 102.099 242.86 102.467 243.707C103.057 244.963 103.442 246.299 103.609 247.668L104 250Z" fill="#F86D70"/>
<path d="M83.5222 223.076C83.1138 223.403 82.7674 223.798 82.4992 224.245C81.9956 225.065 81.2923 225.748 80.4531 226.232C80.1012 226.353 79.7808 226.55 79.5146 226.808C79.3839 227.004 79.3 227.226 79.2694 227.459C79.0978 228.269 79.01 229.094 79.0073 229.922C78.976 230.338 79.0455 230.756 79.2102 231.141C79.3793 231.492 79.7006 231.792 79.7598 232.176C79.7721 232.48 79.7379 232.784 79.6583 233.078C79.5772 233.393 79.7017 233.725 79.9712 233.913C80.1243 233.967 80.2832 234.003 80.4446 234.021C81.2901 234.205 81.5776 235.19 81.7044 236C81.9919 236 82.1187 235.658 82.1864 235.391L83.0318 231.508C83.1333 231.091 83.2855 230.598 83.7167 230.456C84.0121 230.394 84.3175 230.394 84.6129 230.456C85.7797 230.557 86.7605 229.663 87.9019 229.413C88.2696 229.345 88.6445 229.322 89.0179 229.346C89.9141 229.346 90.9625 229.755 91.157 230.582C91.157 230.715 91.2077 230.882 91.3346 230.949C91.4643 230.986 91.6022 230.986 91.7319 230.949C92.2984 230.89 92.6366 231.525 92.8057 232.043L93.3975 233.938C93.4906 234.222 93.6427 234.564 93.9556 234.597C94.2517 234.596 94.5009 234.378 94.539 234.088C94.5516 233.805 94.5115 233.522 94.4206 233.253C94.1416 232.018 94.5728 230.749 94.8349 229.505C95.097 228.261 95.1393 226.833 94.2599 225.873C93.9387 225.53 93.5159 225.272 93.22 224.904C92.9241 224.537 92.7888 224.145 92.5013 223.802C91.3529 222.807 89.9201 222.189 88.4007 222.032C86.705 221.884 85.0038 222.248 83.5222 223.076Z" fill="#3F3D56"/>
<g opacity="0.1">
<path d="M93.744 233.398C93.448 233.398 93.304 233.03 93.216 232.752L92.656 230.895C92.496 230.387 92.176 229.765 91.64 229.815C91.5173 229.851 91.3868 229.851 91.264 229.815C91.144 229.749 91.128 229.594 91.096 229.455C90.912 228.636 89.92 228.285 89.072 228.244C88.7184 228.219 88.3631 228.244 88.016 228.317C86.936 228.555 86.008 229.43 84.904 229.332C84.6237 229.279 84.3363 229.279 84.056 229.332C83.648 229.479 83.504 229.954 83.408 230.371C83.128 231.639 82.856 232.907 82.608 234.167C82.544 234.429 82.424 234.748 82.152 234.765C82.032 233.946 81.76 233.005 80.96 232.825C80.8066 232.811 80.6558 232.776 80.512 232.719C80.4055 232.66 80.3232 232.565 80.28 232.449C80.28 232.564 80.232 232.686 80.216 232.801C80.1393 233.11 80.2571 233.436 80.512 233.619C80.657 233.672 80.8073 233.707 80.96 233.725C81.76 233.905 82.032 234.871 82.152 235.665C82.424 235.665 82.544 235.329 82.608 235.067C82.888 233.799 83.16 232.531 83.408 231.263C83.504 230.854 83.648 230.371 84.056 230.232C84.3355 230.171 84.6245 230.171 84.904 230.232C86.008 230.33 86.936 229.455 88.016 229.209C88.364 229.142 88.7188 229.12 89.072 229.144C89.92 229.144 90.912 229.545 91.096 230.355C91.096 230.485 91.144 230.649 91.264 230.715C91.3868 230.751 91.5173 230.751 91.64 230.715C92.176 230.657 92.496 231.279 92.656 231.786L93.216 233.644C93.304 233.922 93.448 234.257 93.744 234.29C94.0242 234.288 94.26 234.075 94.296 233.791C94.3131 233.569 94.2859 233.347 94.216 233.136C94.1225 233.311 93.938 233.413 93.744 233.398Z" fill="black"/>
<path d="M80.28 231.042C80.224 230.665 79.92 230.371 79.76 230.027C79.6549 229.795 79.5925 229.546 79.576 229.291C79.576 229.43 79.576 229.561 79.576 229.7C79.5463 230.108 79.6122 230.518 79.768 230.895C79.896 231.173 80.12 231.418 80.232 231.713C80.2885 231.494 80.3048 231.267 80.28 231.042Z" fill="black"/>
<path d="M94.5761 228.415C94.2582 229.475 94.1043 230.58 94.1201 231.688C94.2242 230.883 94.3764 230.085 94.5761 229.299C94.7092 228.698 94.755 228.081 94.7121 227.466C94.6868 227.785 94.6414 228.102 94.5761 228.415Z" fill="black"/>
</g>
<path d="M79.7145 250H74C74.2521 248.331 74.7034 246.705 75.3424 245.163C75.3926 245.004 75.4754 244.86 75.5845 244.741C75.608 244.713 75.6352 244.689 75.6652 244.67C75.8339 244.527 76.0687 244.471 76.2521 244.336C76.4355 244.2 76.4575 244.057 76.6262 244.002C77.2611 243.985 77.8932 244.099 78.4895 244.336C78.6582 244.356 78.8236 244.402 78.981 244.471C79.3529 244.695 79.6313 245.065 79.7586 245.505C80.2427 246.929 79.8759 248.473 79.7145 250Z" fill="#F86D70"/>
<defs>
<linearGradient id="paint0_linear_0_1207" x1="325.998" y1="596.016" x2="325.998" y2="-0.0401819" gradientUnits="userSpaceOnUse">
<stop stop-color="#808080" stop-opacity="0.25"/>
<stop offset="0.54" stop-color="#808080" stop-opacity="0.12"/>
<stop offset="1" stop-color="#808080" stop-opacity="0.1"/>
</linearGradient>
<linearGradient id="paint1_linear_0_1207" x1="350.02" y1="273.008" x2="350.02" y2="186" gradientUnits="userSpaceOnUse">
<stop stop-color="#808080" stop-opacity="0.25"/>
<stop offset="0.54" stop-color="#808080" stop-opacity="0.12"/>
<stop offset="1" stop-color="#808080" stop-opacity="0.1"/>
</linearGradient>
<linearGradient id="paint2_linear_0_1207" x1="0.932651" y1="616.043" x2="126.971" y2="616.043" gradientUnits="userSpaceOnUse">
<stop stop-color="#808080" stop-opacity="0.25"/>
<stop offset="0.54" stop-color="#808080" stop-opacity="0.12"/>
<stop offset="1" stop-color="#808080" stop-opacity="0.1"/>
</linearGradient>
</defs>
</svg>
