<svg width="558" height="358" viewBox="0 0 558 358" fill="none" xmlns="http://www.w3.org/2000/svg">
<path d="M85 353C85 353 77.5786 311.197 50.0333 290.482C38.4755 281.788 30.0187 269.966 26.3252 256.503C24.5871 250.124 23.4735 243.592 23 237" stroke="#535461" stroke-width="2"/>
<path d="M5.94837 224.204C8.2018 228.766 23.2603 238 23.2603 238C23.2603 238 25.1532 220.749 22.8829 216.182C20.6125 211.614 14.9959 209.709 10.3088 211.923C5.62163 214.137 3.67805 219.637 5.94837 224.204Z" fill="#1B51E5"/>
<path d="M4.56644 255.656C9.05998 258.223 27 257.995 27 257.995C27 257.995 18.9059 242.866 14.4295 240.299C9.953 237.732 4.10003 239.087 1.38115 243.327C-1.33772 247.568 0.0785947 253.089 4.56644 255.656Z" fill="#1B51E5"/>
<path d="M27.3848 297C32.6311 297.074 48 288.3 48 288.3C48 288.3 32.9269 279.081 27.675 279.001C22.423 278.921 18.1042 282.892 18.0018 287.861C17.8994 292.829 22.1328 296.908 27.3848 297Z" fill="#1B51E5"/>
<path d="M51.8484 325.907C57.0694 326.829 74 320.611 74 320.611C74 320.611 60.6192 309.058 55.404 308.153C50.1888 307.248 45.1465 310.443 44.1668 315.367C43.1872 320.29 46.6217 324.991 51.8484 325.907Z" fill="#1B51E5"/>
<path d="M45.4261 249.975C43.6282 254.61 29.445 265 29.445 265C29.445 265 25.6894 248.52 27.4873 243.885C29.2852 239.25 34.7587 236.857 39.7071 238.537C44.6556 240.218 47.224 245.345 45.4261 249.975Z" fill="#1B51E5"/>
<path d="M74.0399 283.819C70.8445 287.867 54 294 54 294C54 294 55.7118 276.681 58.8844 272.639C62.2083 268.571 68.0302 267.808 72.2482 270.886C74.2443 272.294 75.5736 274.493 75.914 276.95C76.2544 279.407 75.5748 281.898 74.0399 283.819Z" fill="#1B51E5"/>
<path d="M96.8806 320.089C94.3675 324.464 78.3906 333 78.3906 333C78.3906 333 76.9873 316.172 79.5004 311.796C82.0135 307.421 87.938 305.732 92.741 308.022C97.5441 310.311 99.3878 315.713 96.8806 320.089Z" fill="#1B51E5"/>
<path opacity="0.25" d="M5.94837 224.204C8.2018 228.766 23.2603 238 23.2603 238C23.2603 238 25.1532 220.749 22.8829 216.182C20.6125 211.614 14.9959 209.709 10.3088 211.923C5.62163 214.137 3.67805 219.637 5.94837 224.204Z" fill="black"/>
<path opacity="0.25" d="M4.56644 255.656C9.05998 258.223 27 257.995 27 257.995C27 257.995 18.9059 242.866 14.4295 240.299C9.953 237.732 4.10003 239.087 1.38115 243.327C-1.33772 247.568 0.0785947 253.089 4.56644 255.656Z" fill="black"/>
<path opacity="0.25" d="M27.3848 297C32.6311 297.074 48 288.3 48 288.3C48 288.3 32.9269 279.081 27.675 279.001C22.423 278.921 18.1042 282.892 18.0018 287.861C17.8994 292.829 22.1328 296.908 27.3848 297Z" fill="black"/>
<path opacity="0.25" d="M51.8484 325.907C57.0694 326.829 74 320.611 74 320.611C74 320.611 60.6192 309.058 55.404 308.153C50.1888 307.248 45.1465 310.443 44.1668 315.367C43.1872 320.29 46.6217 324.991 51.8484 325.907Z" fill="black"/>
<path opacity="0.25" d="M45.4261 249.975C43.6282 254.61 29.445 265 29.445 265C29.445 265 25.6894 248.52 27.4873 243.885C29.2852 239.25 34.7587 236.857 39.7071 238.537C44.6556 240.218 47.224 245.345 45.4261 249.975Z" fill="black"/>
<path opacity="0.25" d="M74.0399 283.819C70.8445 287.867 54 294 54 294C54 294 55.7118 276.681 58.8844 272.639C62.2083 268.571 68.0302 267.808 72.2482 270.886C74.2443 272.294 75.5736 274.493 75.914 276.95C76.2544 279.407 75.5748 281.898 74.0399 283.819Z" fill="black"/>
<path opacity="0.25" d="M96.8806 320.089C94.3675 324.464 78.3906 333 78.3906 333C78.3906 333 76.9873 316.172 79.5004 311.796C82.0135 307.421 87.938 305.732 92.741 308.022C97.5441 310.311 99.3878 315.713 96.8806 320.089Z" fill="black"/>
<path d="M84.124 352C84.124 352 95.604 310.842 79.0498 281.339C72.1044 268.962 69.4235 254.899 71.9108 241.145C73.1048 234.606 74.9416 228.194 77.3956 222" stroke="#535461" stroke-width="2"/>
<path d="M68.0062 204.189C68.1882 209.087 78.2041 223 78.2041 223C78.2041 223 87.1793 208.479 86.9973 203.575C86.8153 198.671 82.4187 194.836 77.1747 195.005C71.9307 195.174 67.8185 199.285 68.0062 204.189Z" fill="#1B51E5"/>
<path d="M52.6847 232.209C55.6598 236.298 72 243 72 243C72 243 71.0985 225.965 68.1234 221.87C65.0024 217.755 59.2903 216.779 55.0174 219.63C52.9935 220.923 51.5914 223.014 51.1486 225.402C50.7058 227.789 51.2625 230.256 52.6847 232.209Z" fill="#1B51E5"/>
<path d="M55.5018 279.089C60.2531 281.162 78 279.049 78 279.049C78 279.049 68.1967 264.899 63.4453 262.827C58.6939 260.754 53.0694 262.713 50.8751 267.205C48.6808 271.696 50.756 277.016 55.5018 279.089Z" fill="#1B51E5"/>
<path d="M65.2205 314.434C69.6518 317.253 88 318 88 318C88 318 80.6747 302.417 76.2492 299.604C71.8253 296.78 65.9277 297.775 62.7224 301.886C61.2546 303.843 60.6896 306.313 61.1641 308.697C61.6387 311.08 63.1096 313.161 65.2205 314.434Z" fill="#1B51E5"/>
<path d="M92.3211 243.25C88.6331 246.837 71 251 71 251C71 251 74.7398 234.352 78.422 230.766C82.2008 227.177 88.1278 227.068 92.0387 230.515C93.8711 232.115 94.9442 234.401 94.9979 236.821C95.0515 239.241 94.0808 241.572 92.3211 243.25Z" fill="#1B51E5"/>
<path d="M103.961 284.338C99.2682 286.793 81 285.803 81 285.803C81 285.803 89.9514 270.57 94.6446 268.132C99.3378 265.695 105.232 267.318 107.802 271.794C110.372 276.27 108.678 281.883 103.961 284.338Z" fill="#1B51E5"/>
<path d="M109.346 326.005C105.157 329.089 87 331 87 331C87 331 93.1181 315.031 97.3069 311.948C101.53 308.871 107.453 309.502 110.905 313.398C112.495 315.236 113.232 317.643 112.936 320.037C112.64 322.431 111.338 324.595 109.346 326.005Z" fill="#1B51E5"/>
<path fill-rule="evenodd" clip-rule="evenodd" d="M554.283 106.668C555.011 108.328 556.281 111.225 556.033 111.903C555.895 112.282 556.316 113.175 556.803 114.21C557.525 115.74 558.392 117.58 557.808 118.52C557.029 119.898 556.338 121.323 555.741 122.789C555.741 122.789 551.7 130.472 549.639 131.928C547.578 133.383 538.127 145.592 538.127 145.592C538.127 145.592 527.99 157.212 527.99 160.799C527.99 160.799 527.417 159.848 526.473 158.421L527.984 184.032C527.984 184.032 524.463 187.017 523.69 187.361C520.084 189.836 513.982 185.911 513.037 185.138C512.539 184.725 509.162 184.834 506.168 185.023C506.832 198.883 504.021 201.542 504.021 201.542L503.684 213.574C503.684 213.574 504.119 231.943 502.825 234.842C501.531 237.741 501.531 249.446 501.531 249.446C501.531 249.446 502.39 254.992 501.446 256.19C500.501 257.387 501.194 261.839 501.881 264.131C502.567 266.423 501.961 272.152 501.961 272.152L501.789 304.438C501.789 304.438 500.85 312.804 499.642 314.007C498.937 314.724 498.674 315.768 498.955 316.734C498.955 316.734 497.925 321.513 498.183 322.372C498.44 323.231 498.961 325.191 496.98 326.131C495 327.07 495.515 330.061 495.515 330.061C495.305 330.012 495.093 329.974 494.88 329.946C494.937 330.296 495.006 330.657 495.086 331.001C495.184 331.641 495.418 332.252 495.773 332.794C496.637 333.734 497.152 337.916 497.152 337.916C497.152 337.916 500.243 344.064 499.9 345.433C499.648 346.453 499.339 348.287 499.196 349.152C499.127 349.444 499.127 349.622 499.127 349.622C499.127 349.622 497.41 353.38 487.873 354.744C478.336 356.108 478.336 351.581 478.336 351.581C478.336 351.581 478.37 351.094 478.433 350.367C478.461 350.071 478.492 349.735 478.525 349.374C478.716 347.3 478.98 344.419 479.195 343.726C479.51 342.614 478.937 337.744 478.937 337.744L478.834 332.656V331.642C477.947 331.82 477.415 331.94 477.415 331.94C475.965 328.966 474.701 325.904 473.631 322.773C473.167 321.492 473.279 320.072 473.937 318.879C474.595 317.686 475.735 316.835 477.065 316.545C478.874 316.27 475.777 313.107 475.777 313.107C475.777 313.107 476.121 312.678 475.262 309.607C474.429 306.628 475.374 299.142 475.666 296.824L475.691 296.623C475.949 294.572 477.237 284.666 477.237 284.666C477.237 284.666 476.55 272.107 477.065 271.597C477.581 271.087 479.309 266.131 478.445 264.509C477.581 262.888 476.207 252.214 476.207 251.612C476.207 251.01 475.09 237.174 475.09 237.174C475.09 237.174 474.071 227.577 474.329 225.525C474.587 223.474 473.642 215.871 473.642 215.871C473.642 209.529 469.95 202.693 469.95 202.693L469.858 202.94L461.844 223.795C461.844 223.795 460.585 230.115 459.44 233.701C458.726 236.15 458.159 238.639 457.74 241.156L457.665 241.608C457.654 241.67 457.642 241.728 457.631 241.784C457.607 241.902 457.585 242.005 457.585 242.095L457.534 242.433C457.534 242.433 458.135 246.965 457.19 248.415C456.246 249.865 455.215 254.219 455.215 255.416C455.215 256.614 455.295 261.226 455.295 261.226C455.295 261.226 455.673 270.365 454.723 271.39C453.773 272.416 454.288 273.27 454.288 273.27C454.288 273.27 455.799 280.145 455.112 281.939C454.425 283.732 454.941 287.914 454.941 287.914C454.941 287.914 453.572 301.155 453.395 301.837C453.218 302.519 452.267 307.825 453.303 308.249C454.34 308.673 456.309 311.234 456.309 311.234C456.309 311.234 456.744 322.412 455.198 323.266C453.653 324.119 454.506 328.48 454.506 328.48L453.847 328.6C453.91 328.915 453.979 329.253 454.036 329.591C454.28 330.596 454.382 331.629 454.34 332.662C454.232 333.426 454.45 334.199 454.941 334.794L455.324 338.283L455.456 339.498C455.456 339.498 448.243 344.19 444.631 343.508C441.019 342.826 437.321 344.706 437.321 344.706C434.83 347.408 431.697 349.436 428.213 350.601C422.369 352.549 414.212 351.793 409.569 350.258C407.371 349.53 407.199 348.579 408.258 347.433C409.373 346.208 411.858 344.74 414.78 343.014C414.933 342.923 415.087 342.832 415.242 342.741C421.172 339.24 427.526 332.318 427.526 332.318C427.526 332.318 427.635 330.611 428.671 329.843C429.299 329.298 429.873 328.696 430.389 328.044L430.887 327.471L430.314 327.385L431.173 324.578C431.121 324.675 430.555 325.586 430.143 322.091C429.719 318.419 433.325 320.212 433.325 320.212C433.325 320.212 436.159 320.905 431.608 316.459C427.057 312.013 429.261 307.487 429.547 307.487C429.833 307.487 430.406 300.915 430.406 300.915C430.406 300.915 431.173 296.984 430.578 293.908C429.982 290.831 429.467 281.268 429.467 281.268C429.467 281.268 429.891 274.015 429.118 271.362C428.41 268.931 429.432 264.717 429.806 263.173C429.84 263.031 429.869 262.912 429.891 262.819C430.148 261.707 429.118 251.543 429.118 251.543C429.118 251.543 429.982 246.771 429.467 243.264C428.952 239.758 429.982 226.86 429.982 226.86L431.579 212.044C431.579 212.044 432.696 207.432 432.524 205.552C432.352 203.673 433.812 197.095 433.812 197.095C433.726 195.695 433.961 194.294 434.499 192.999C434.845 192.147 435.078 191.253 435.191 190.34C432.713 188.501 431.236 185.224 431.236 185.224C431.046 184.899 430.872 184.564 430.715 184.221L432.089 178.417C432.089 178.417 432.175 170.384 433.033 168.849C433.892 167.313 434.407 162.873 434.407 162.873C434.407 162.873 435.987 153.087 436.262 150.978C435.961 150.924 435.653 150.924 435.352 150.978C435.352 150.978 435.432 150.577 435.569 149.907C435.324 149.889 435.078 149.904 434.837 149.953C434.837 149.953 438.534 131.4 440.509 127.229C442.484 123.058 442.141 111.599 442.141 111.599C442.141 111.599 438.271 112.797 438.099 113.822C437.928 114.848 432.947 121.763 432.947 121.763C432.947 121.763 431.808 125.952 426.651 128.685C421.493 131.418 415.826 128.169 414.967 127.063C414.194 126.06 399.168 119.466 396.157 118.154L395.63 117.925L395.665 117.747V117.655L395.092 117.415L395.665 117.592C395.745 117.226 395.905 116.567 396.145 115.707C396.172 115.677 396.173 115.659 396.176 115.631C396.177 115.61 396.179 115.585 396.191 115.547C396.204 115.505 396.212 115.474 396.222 115.439C396.233 115.396 396.246 115.347 396.271 115.266C396.284 115.225 396.297 115.183 396.31 115.141C396.345 115.029 396.381 114.913 396.414 114.796L396.466 114.624C396.485 114.564 396.505 114.504 396.526 114.443C396.56 114.342 396.594 114.239 396.626 114.132C396.655 114.109 396.655 114.057 396.655 114.057C396.912 113.266 397.227 112.401 397.599 111.507L395.39 108.643L395.126 108.448L384.851 98.8394C383.022 97.1331 381.988 94.7393 382 92.2366C382.012 89.7339 383.069 87.3501 384.914 85.6614C385.888 84.7625 386.323 85.9343 386.469 86.3279C386.487 86.3783 386.501 86.416 386.511 86.4349C392.957 87.2256 403.931 97.5388 403.931 97.5388L405.281 99.0399L405.785 99.6129C405.897 99.1522 405.848 98.6672 405.648 98.2378C405.339 97.7794 407.491 99.7848 408.51 100.747C408.509 100.736 408.509 100.724 408.51 100.713C408.521 100.737 408.535 100.76 408.55 100.782L409.025 101.229C410.571 103.962 417.36 105.497 417.36 105.497L420.279 103.704C420.537 100.375 425.265 96.4444 425.265 96.4444C425.265 96.4444 426.662 94.9032 427.412 91.5743C428.162 88.2454 431.024 88.6694 431.024 88.6694L431.368 83.805C431.368 83.805 433.915 82.43 433.657 79.7027C433.4 76.9754 436.405 71.6813 436.405 71.6813C436.405 71.6813 437.756 71.1714 438.036 65.7856C438.317 60.3998 440.899 60.0561 440.899 60.0561L448.203 59.6321C448.804 57.5809 464.443 55.1057 464.443 55.1057C464.443 55.1057 467.191 54.0744 468.65 51.8571C470.11 49.6398 471.662 50.4075 471.662 50.4075L471.89 50.631C471.882 50.5551 471.874 50.4902 471.865 50.4202C471.855 50.3474 471.845 50.2691 471.833 50.1669C471.825 50.0913 471.812 50.0173 471.799 49.9446C471.779 49.8246 471.759 49.7081 471.759 49.5939C464.864 46.1661 460.5 39.1306 460.488 31.4255V31.1333V30.6119C459.934 30.8722 459.36 31.0849 458.77 31.2479C458.627 31.288 458.478 31.3224 458.335 31.351C457.76 31.4733 457.171 31.5196 456.583 31.4885C456.523 31.4839 456.463 31.4754 456.404 31.4669C456.318 31.4547 456.233 31.4427 456.148 31.4427C455.894 31.4071 455.644 31.3516 455.399 31.2766L455.278 31.2479C455.364 30.9729 455.461 30.7093 455.559 30.4458C456.405 28.1265 457.725 26.0093 459.434 24.2292C459.832 23.8801 460.157 23.4556 460.39 22.9802C460.545 22.5601 460.571 22.1031 460.465 21.6681C460.271 20.9806 460.004 20.316 459.669 19.6857L459.6 19.5252L459.514 19.3304C459.503 19.3014 459.492 19.2727 459.48 19.2441C459.44 19.1428 459.401 19.0436 459.366 18.9408C459.363 18.918 459.363 18.8949 459.366 18.8721C459.359 18.8512 459.351 18.828 459.343 18.8038C459.304 18.6887 459.257 18.55 459.257 18.5168V18.3965C459.224 18.2549 459.199 18.1114 459.182 17.9668C459.171 17.8142 459.171 17.661 459.182 17.5084C459.182 17.4896 459.181 17.4732 459.18 17.4566C459.177 17.4229 459.175 17.3884 459.182 17.3308C459.194 17.2449 459.211 17.1475 459.228 17.073C459.242 17.0128 459.26 16.9489 459.275 16.8934C459.279 16.8802 459.282 16.8674 459.285 16.8553C459.292 16.8317 459.301 16.809 459.311 16.7865C459.327 16.7487 459.343 16.7114 459.343 16.6719C459.67 15.8204 460.217 15.0711 460.928 14.5004C461.372 14.1313 461.852 13.8116 462.331 13.4923C462.944 13.0831 463.557 12.6745 464.094 12.1628C465.18 11.1304 465.901 9.74842 466.62 8.37016C467.413 6.84933 468.204 5.33306 469.481 4.29611C471.593 2.57724 474.501 2.60589 477.128 2.97258C477.498 3.02421 477.87 3.0806 478.242 3.13714C480.516 3.48223 482.827 3.83287 485.011 3.13874C486.013 2.81743 486.939 2.28766 487.865 1.75726C488.69 1.28511 489.516 0.812461 490.397 0.48596C494.313 -0.975075 499.076 0.967241 501.096 4.85187C501.779 6.17224 502.158 7.6169 502.537 9.06196C502.829 10.1753 503.121 11.2889 503.552 12.3461C503.876 13.1424 504.275 13.8991 504.673 14.6556C505.077 15.4232 505.482 16.1905 505.807 16.9985C506.553 18.9127 506.845 20.974 506.66 23.0203C506.632 23.3812 506.58 23.7365 506.523 24.0917C506.516 24.1358 506.506 24.1798 506.495 24.2239C506.477 24.2944 506.46 24.365 506.46 24.4355C506.409 24.6933 506.351 24.9511 506.288 25.2032L506.202 25.5241C506.105 25.8736 505.985 26.246 505.865 26.5611C505.745 26.8763 505.613 27.1914 505.47 27.495C505.154 28.1774 504.798 28.8435 504.443 29.5085C503.682 30.9318 502.924 32.3501 502.573 33.9121C502.452 34.5086 502.362 35.111 502.304 35.7169C502.297 35.7643 502.289 35.8116 502.281 35.859C502.261 35.9725 502.241 36.0868 502.241 36.204C502.241 36.2267 502.243 36.2431 502.245 36.2597C502.249 36.2934 502.253 36.3277 502.241 36.416C502.224 36.5477 502.195 36.7368 502.184 36.8056C502.179 36.8369 502.175 36.8575 502.17 36.8831C502.164 36.9137 502.156 36.9515 502.144 37.0233C502.138 37.0577 502.132 37.0964 502.127 37.136C502.11 37.2478 502.093 37.3663 502.064 37.4129C502.024 37.4759 502.024 37.5447 502.024 37.6077C501.978 37.8082 501.921 37.9973 501.858 38.1807C501.559 39.1201 500.903 39.9043 500.032 40.3636C500.007 40.3732 499.982 40.3859 499.957 40.3986C499.908 40.4241 499.858 40.4496 499.808 40.4496C499.623 40.507 499.43 40.5379 499.236 40.5412C499.223 40.5682 499.21 40.5953 499.197 40.6225C499.129 40.763 499.061 40.9062 498.984 41.0454C498.121 42.6469 497.046 44.125 495.79 45.44C495.991 46.2075 496.252 46.9584 496.568 47.686L496.603 47.749C496.625 47.7852 496.658 47.839 496.7 47.9078C497.184 48.7007 498.884 51.4848 499.837 52.2123L503.523 55.0313C503.523 55.0313 507.221 56.7501 508.509 56.7501C509.797 56.7501 516.758 58.5435 517.623 59.4831C518.034 59.8123 518.55 59.9831 519.077 59.9644C519.684 59.9259 520.288 59.8513 520.886 59.7409L521.229 59.8498C521.635 59.7925 521.916 59.7409 521.916 59.7409C521.916 59.7409 524.744 60.7035 527.24 61.2765C529.735 61.8494 530.938 65.9575 530.422 67.579C530.003 69.2202 530.46 70.9618 531.63 72.1855C532.661 73.2111 533.176 76.54 533.176 76.54C534.438 76.9514 535.488 77.8423 536.101 79.0209C536.696 80.3158 536.736 82.6878 536.736 84.017C536.702 84.6072 536.702 84.9968 536.702 84.9968C536.713 84.9968 541.86 85.0885 542.375 89.357C542.89 93.6255 547.613 95.5907 547.613 95.5907C547.613 95.5907 551.139 99.0915 551.139 100.713C551.139 101.872 552.499 103.687 553.275 104.722C553.584 105.135 553.801 105.424 553.801 105.497C553.801 105.569 554.001 106.026 554.283 106.668ZM525.78 128.312C525.843 127.017 531.281 121.122 533.857 120.864C533.857 120.864 534.269 117.392 533.153 117.306C532.037 117.22 531.092 114.487 531.092 114.487C531.092 114.487 525.694 108.167 523.977 102.81L523.885 102.942C523.885 102.942 524.063 109.857 523.542 111.393C523.244 112.287 523.902 121.483 524.509 129.028C524.532 129.329 524.556 129.628 524.58 129.923C524.599 130.152 524.618 130.379 524.635 130.604C525.167 129.894 525.74 128.988 525.78 128.312Z" fill="url(#paint0_linear_0_1086)"/>
<path d="M396 118.903C396 118.903 399.195 102.088 409.482 102L417 117.514L411.988 120.983C411.988 120.983 401.1 121.329 396 118.903Z" fill="#65617D"/>
<path opacity="0.1" d="M417 117.511L411.988 120.982C411.988 120.982 404.324 121.229 398.845 119.874C397.868 119.642 396.915 119.316 396 118.901C396 118.901 396 118.807 396.058 118.631C396.058 118.631 396.058 118.59 396.058 118.566C396.53 116.454 397.181 114.386 398.004 112.386C398.325 111.629 398.681 110.849 399.067 110.069C400.574 107.137 402.688 104.311 405.586 102.897C406.657 102.369 407.823 102.064 409.015 102H409.318H409.47L409.634 102.346L412.175 107.589L417 117.511Z" fill="black"/>
<path d="M500.777 186.237C500.777 186.237 511.473 185.219 512.41 185.984C513.346 186.749 519.423 190.661 523.019 188.193C526.615 185.725 524.216 177.131 524.216 176.791C524.216 176.452 523.875 164.278 523.875 164.278L517.457 155.684L509.42 140.622L493 139L493.428 162.921L493.341 175.175L500.777 186.237Z" fill="#65617D"/>
<path opacity="0.1" d="M500.777 186.237C500.777 186.237 511.473 185.219 512.41 185.984C513.346 186.749 519.423 190.661 523.019 188.193C526.615 185.725 524.216 177.131 524.216 176.791C524.216 176.452 523.875 164.278 523.875 164.278L517.457 155.684L509.42 140.622L493 139L493.428 162.921L493.341 175.175L500.777 186.237Z" fill="black"/>
<path d="M407 102.535C407 102.535 406.157 112.835 399.759 113C399.759 113 397.943 111.904 395.501 110.078C389.877 105.861 380.956 97.7527 383.421 90.209C386.956 79.4069 404.137 99.3391 404.137 99.3391L405.452 100.823L407 102.535Z" fill="#FBBEBE"/>
<path opacity="0.1" d="M407 102.687C407 102.687 406.16 112.837 399.783 113C399.783 113 397.973 111.92 395.539 110.121L395 109.429C396.083 109.989 397.275 110.307 398.495 110.363C400.459 110.44 402.266 109.305 403.034 107.512C403.705 106.207 404.294 104.862 404.799 103.485C405.109 102.683 405.33 101.85 405.457 101L407 102.687Z" fill="black"/>
<path d="M404.565 121L403.157 119.163L398.415 112.965L396 109.804C397.061 110.368 398.231 110.687 399.428 110.74C401.003 110.779 402.767 110.176 403.88 107.889C404.537 106.579 405.115 105.23 405.611 103.849C406.39 101.595 406.379 100.468 406.101 100.057C405.822 99.6456 407.848 101.567 408.822 102.502L408.855 102.536L409.312 102.97L409.479 103.308L411.866 108.137C411.866 108.137 411.866 108.204 411.866 108.339C412.1 109.889 412.907 119.62 404.565 121Z" fill="#E7EFFD"/>
<path d="M455 338.652C455 338.652 447.906 343.367 444.361 342.706C440.817 342.046 437.181 343.911 437.181 343.911C434.737 346.619 431.656 348.654 428.226 349.825C422.519 351.794 414.471 351.018 409.911 349.477C407.754 348.747 407.577 347.809 408.616 346.645C409.757 345.347 412.417 343.789 415.465 341.936C421.292 338.426 427.536 331.51 427.536 331.51C427.536 331.51 427.621 329.773 428.637 329.031C429.263 328.485 429.836 327.88 430.35 327.224C431.257 326.135 432.107 325 432.107 325L452.974 325.614C452.974 325.614 453.328 327.137 453.607 328.695C453.846 329.706 453.943 330.745 453.898 331.782C453.79 332.544 453.997 333.318 454.469 333.92L454.846 337.395L455 338.652Z" fill="#65617D"/>
<path d="M498.974 344.607C498.726 345.61 498.409 347.406 498.291 348.251L498.217 348.715C498.217 348.715 496.523 352.404 487.275 353.747C478.028 355.09 478 350.642 478 350.642C478 350.642 478.034 350.166 478.09 349.446C478.254 347.486 478.587 343.728 478.836 342.929C479.164 341.841 478.582 337.059 478.582 337.059L478.486 332.066L478.412 328.598L493.794 327C493.889 328.154 494.055 329.301 494.291 330.434C494.385 331.063 494.615 331.665 494.964 332.196C495.8 333.12 496.297 337.229 496.297 337.229C496.297 337.229 499.308 343.264 498.974 344.607Z" fill="#65617D"/>
<path opacity="0.1" d="M453.376 325.671C453.376 325.671 453.725 327.153 454 328.67C451.779 329.081 442.076 330.767 439.652 329.589C436.903 328.253 431 327.503 431 327.503L431.096 327.165C431.989 326.105 432.827 325 432.827 325L453.376 325.671Z" fill="black"/>
<path opacity="0.1" d="M494 330.389C490.075 329.735 481.487 331.318 478.074 332L478 328.577L493.488 327C493.587 328.139 493.758 329.271 494 330.389Z" fill="black"/>
<path d="M502.766 202.422L502.431 214.387C502.431 214.387 502.852 232.632 501.588 235.518C500.324 238.403 500.324 250.029 500.324 250.029C500.324 250.029 501.167 255.541 500.239 256.729C499.311 257.916 499.988 262.327 500.66 264.621C501.332 266.915 500.745 272.6 500.745 272.6L500.575 304.674C500.575 304.674 499.652 312.986 498.468 314.179C497.777 314.896 497.52 315.932 497.796 316.892C497.796 316.892 496.789 321.641 497.039 322.496C497.29 323.35 497.796 325.295 495.861 326.224C493.925 327.153 494.426 330.13 494.426 330.13C489.797 329.023 476.658 332 476.658 332C475.238 329.051 474 326.017 472.951 322.914C472.493 321.644 472.601 320.236 473.246 319.051C473.891 317.866 475.012 317.019 476.322 316.725C478.087 316.467 475.058 313.33 475.058 313.33C475.058 313.33 475.394 312.905 474.551 309.854C473.708 306.802 474.716 298.956 474.972 296.948C475.229 294.941 476.487 285.069 476.487 285.069C476.487 285.069 475.815 272.6 476.322 272.089C476.828 271.579 478.508 266.657 477.671 265.046C476.834 263.434 475.473 252.828 475.473 252.232C475.473 251.635 474.386 237.892 474.386 237.892C474.386 237.892 473.373 228.302 473.629 226.266C473.885 224.229 472.951 216.681 472.951 216.681C472.951 210.372 469.33 203.609 469.33 203.609L469.239 203.856L461.434 224.574C461.434 224.574 460.17 230.849 459.077 234.411C458.386 236.833 457.836 239.294 457.432 241.781L457.358 242.234C457.358 242.423 457.301 242.584 457.284 242.71L457.232 243.054C457.232 243.054 457.802 247.551 456.891 248.997C455.98 250.442 454.955 254.767 454.955 255.954C454.955 257.142 455.041 261.725 455.041 261.725C455.041 261.725 455.376 270.804 454.471 271.825C453.566 272.846 454.044 273.69 454.044 273.69C454.044 273.69 455.559 280.573 454.887 282.345C454.215 284.117 454.722 288.281 454.722 288.281C454.722 288.281 453.372 301.439 453.207 302.116C453.042 302.793 452.109 308.059 453.122 308.483C454.135 308.908 456.065 311.449 456.065 311.449C456.065 311.449 456.492 322.57 454.972 323.413C453.452 324.257 454.295 328.576 454.295 328.576C454.295 328.576 442.089 330.95 439.31 329.591C436.532 328.232 430.549 327.469 430.549 327.469L431.385 324.681C431.334 324.779 430.776 325.685 430.378 322.209C429.962 318.561 433.498 320.339 433.498 320.339C433.498 320.339 436.276 321.022 431.79 316.611C427.303 312.2 429.512 307.697 429.769 307.697C430.025 307.697 430.617 301.17 430.617 301.17C430.617 301.17 431.374 297.264 430.782 294.207C430.19 291.149 429.689 281.645 429.689 281.645C429.689 281.645 430.11 274.435 429.353 271.808C428.596 269.181 429.854 264.42 430.11 263.319C430.366 262.218 429.324 252.146 429.324 252.146C429.324 252.146 430.167 247.396 429.66 243.921C429.154 240.445 430.167 227.625 430.167 227.625L431.681 212.861C431.681 212.861 432.775 208.272 432.609 206.408C432.444 204.544 433.879 198.011 433.879 198.011C433.793 196.62 434.023 195.227 434.551 193.938C435.393 192.218 435.729 186.642 435.729 186.642L443.819 167.972L447.805 151.51L501.281 151C501.281 151 501.48 152.428 501.804 155.015C502.129 157.602 502.584 161.445 503.091 166.188C503.558 170.496 504.07 175.561 504.565 181.199C506.182 199.198 502.766 202.422 502.766 202.422Z" fill="#3F3D56"/>
<path d="M499 53.7274L486.298 67C486.298 67 470 60.6135 471.717 58.4336C472.378 57.5877 472.297 54.9196 471.891 51.9789C471.311 47.3239 470 41.9705 470 41.9705C470 41.9705 498.484 37.429 496.1 42.1352C495.224 43.8382 495.375 45.8592 495.92 47.7156C496.61 49.8684 497.65 51.8984 499 53.7274Z" fill="#FBBEBE"/>
<path opacity="0.1" d="M495.858 42.13C494.989 43.8257 494.575 44.0066 495.116 45.8549C491.424 49.7381 486.727 54 480.885 54C477.758 54.0047 474.674 53.2945 471.874 51.9256C471.299 47.2906 470 41.9604 470 41.9604C470 41.9604 498.238 37.4385 495.858 42.13Z" fill="black"/>
<path d="M501 33.2381C500.816 44.2057 491.916 53 481 53C470.084 53 461.184 44.2057 461 33.2381C461 33.1411 461 33.044 461 32.9527C461.078 21.8546 470.095 12.9217 481.139 13.0005C492.183 13.0793 501.073 22.14 500.994 33.2381H501Z" fill="#FBBEBE"/>
<path opacity="0.1" d="M504 165.693C501.318 165.693 492.378 165.787 482.385 165.935H482.264L478.966 165.989H478.862C467.016 166.17 455.336 163.966 450.656 164.383C440.698 165.271 454.237 155.609 454.237 155.609C461.661 157.328 469.298 158.066 476.934 157.802L479.812 157.66C488.861 157.172 497.962 156.36 502.716 155C503.033 157.512 503.488 161.158 504 165.693Z" fill="black"/>
<path d="M504 165.693C501.318 165.693 492.378 165.786 482.385 165.935H482.264L478.966 165.989H478.862C467.016 166.17 455.336 163.965 450.656 164.382C440.698 165.276 454.237 155.604 454.237 155.604C461.661 157.323 469.298 158.062 476.934 157.798L479.812 157.655C488.861 157.167 497.962 156.355 502.716 155C503.033 157.513 503.488 161.145 504 165.693Z" fill="#5F5D7E"/>
<path opacity="0.1" d="M475.58 59.0361L460.011 66.3011L448 159C448 159 455.104 155.793 459.17 157.819C463.237 159.845 475.757 157.99 475.757 157.99C475.757 157.99 484.908 157.482 486.252 158.498C487.597 159.514 503.503 154.252 503.503 154.252C503.503 154.252 506.362 147.837 504.178 146.833C501.993 145.828 504.875 135.87 504.875 135.87L503.503 69.0006L500.792 60.3887L493.516 56L486.081 61.9067L482.529 62.4147L475.58 59.0361Z" fill="black"/>
<path d="M475.574 58.0417L460.009 65.3006L448 158C448 158 455.102 154.793 459.168 156.819C463.234 158.845 475.751 156.984 475.751 156.984C475.751 156.984 484.901 156.482 486.245 157.492C487.589 158.502 503.503 153.269 503.503 153.269C503.503 153.269 506.362 146.855 504.178 145.85C501.993 144.846 504.864 134.859 504.864 134.859L503.492 67.9998L500.781 59.3941L493.507 55L486.073 60.9121L482.522 61.42L475.574 58.0417Z" fill="#E7EFFD"/>
<path opacity="0.1" d="M475.109 62.3961C475.109 62.3961 479.593 67.7507 479.513 68.8596C479.433 69.9684 479.256 72.5998 479.256 72.5998L475.87 79.4942C475.87 79.4942 474.011 88.0776 474.011 89.8644C474.011 91.6512 471.048 107.1 471.048 107.1L467.484 130.903L463 162.1L467.576 170L472.987 165.404L480.182 109.812L481.704 98.8501C481.704 98.8501 483.311 79.1322 483.311 77.0926C483.311 75.053 482.384 69.6984 482.384 69.6984C482.384 69.6984 483.483 64.5966 488.053 63.3786C492.623 62.1606 487.715 63.12 487.715 63.12L485.09 61L482.802 61.9307C482.802 61.9307 476.464 60.0176 475.109 62.3961Z" fill="black"/>
<path d="M474.095 62.3621C474.095 62.3621 478.584 67.7187 478.498 68.8223C478.412 69.9258 478.241 72.5638 478.241 72.5638L474.861 79.4607C474.861 79.4607 472.997 88.0474 472.997 89.8349C472.997 91.6223 470.035 107.077 470.035 107.077L466.483 130.883L462 162.092L466.575 170L471.99 165.402L479.179 109.796L480.706 98.8353C480.706 98.8353 482.312 79.1101 482.312 77.0698C482.312 75.0295 481.386 69.6729 481.386 69.6729C481.386 69.6729 482.484 64.5692 487.053 63.3794C491.622 62.1897 486.716 63.1265 486.716 63.1265L484.091 61L481.804 61.9368C481.804 61.9368 475.45 59.977 474.095 62.3621Z" fill="#1B51E5"/>
<path opacity="0.1" d="M471.334 53C471.334 53 470.664 53.5127 470.501 56.9228C470.338 60.3329 468 68 468 68C468 68 476.669 61.8652 481 62.5449L471.334 53Z" fill="black"/>
<path d="M471.334 52C471.334 52 470.664 52.5071 470.501 55.9186C470.338 59.33 468 67 468 67C468 67 476.669 60.8629 481 61.5486L471.334 52Z" fill="#E7EFFD"/>
<path opacity="0.1" d="M495.679 50L482 62.2268C482 62.2268 493.504 69.1897 495.003 70.8889C496.501 72.588 498 54.2421 498 54.2421L495.679 50Z" fill="black"/>
<path d="M495.663 49L482 61.2292C482 61.2292 493.495 68.1902 495.004 69.8889C496.513 71.5876 498 53.2466 498 53.2466L495.663 49Z" fill="#E7EFFD"/>
<path opacity="0.1" d="M471.737 53.1271C471.737 53.1271 470.2 52.3659 468.75 54.5694C467.682 56.0057 466.232 57.1194 464.561 57.7859C464.561 57.7859 449.003 60.2412 448.384 62.273L441.116 62.6965C441.116 62.6965 438.551 63.0342 438.297 68.3684C438.043 73.7025 436.673 74.2119 436.673 74.2119C436.673 74.2119 433.681 79.4602 433.941 82.1674C434.201 84.8745 431.63 86.2367 431.63 86.2367L442.312 113.755C442.312 113.755 442.659 125.098 440.689 129.248C438.719 133.397 435.05 151.769 435.05 151.769C435.05 151.769 436.587 151.431 436.5 152.444C436.413 153.457 434.674 164.555 434.674 164.555C434.674 164.555 434.16 168.956 433.305 170.484C432.45 172.013 432.363 179.962 432.363 179.962L431 185.72C431 185.72 434.247 192.92 439.204 191.901C444.161 190.883 453.133 171.669 453.133 171.669L458.865 150.922L463.308 130.432L464.59 116.548L466.641 85.8132L469.634 65.4895C469.634 65.4895 472.939 54.5522 471.737 53.1271Z" fill="black"/>
<path d="M471.742 52.1275C471.742 52.1275 470.201 51.3663 468.753 53.564C467.689 55.0023 466.24 56.1165 464.57 56.7806C464.57 56.7806 449.037 59.2359 448.414 61.2677L441.155 61.6912C441.155 61.6912 438.599 62.0346 438.339 67.3688C438.08 72.703 436.718 73.2067 436.718 73.2067C436.718 73.2067 433.729 78.4607 433.989 81.1679C434.249 83.8751 431.681 85.2315 431.681 85.2315L442.355 112.75C442.355 112.75 442.696 124.093 440.734 128.243C438.772 132.392 435.097 150.77 435.097 150.77C435.097 150.77 436.632 150.427 436.551 151.445C436.47 152.464 434.67 163.55 434.67 163.55C434.67 163.55 434.156 167.957 433.302 169.48C432.448 171.002 432.367 178.963 432.367 178.963L431 184.721C431 184.721 434.243 191.915 439.193 190.902C444.144 189.889 453.122 170.664 453.122 170.664L458.84 149.923L463.277 129.433L464.558 115.543L466.607 84.808L469.596 64.49C469.596 64.49 472.936 53.564 471.742 52.1275Z" fill="#65617D"/>
<path opacity="0.1" d="M417 117.607L412.11 120.983C412.11 120.983 404.634 121.222 399.288 119.905L396.57 118.696L396 118.457L396.57 118.634C399.391 119.472 401.596 119.455 403.323 118.873C410.241 116.541 409.478 105.108 409.21 102.525C409.21 102.262 409.164 102.097 409.153 102.034C409.152 102.023 409.152 102.011 409.153 102L409.193 102.068C409.288 102.224 409.395 102.373 409.512 102.513C409.609 102.622 409.711 102.736 409.82 102.844L412.264 107.731C412.264 107.731 412.264 107.799 412.264 107.936L417 117.607Z" fill="black"/>
<path d="M433.5 85L431.13 85.6729L430.793 90.4799C430.793 90.4799 428.006 90.0579 427.246 93.3311C426.486 96.6042 425.133 98.1438 425.133 98.1438C425.133 98.1438 420.484 102.021 420.233 105.312L417.377 107.085C417.377 107.085 410.701 105.563 409.181 102.865C409.181 102.865 412.226 124.631 396 119.316C396 119.316 414.167 127.243 415.013 128.343C415.858 129.444 421.432 132.643 426.504 129.946C431.575 127.248 432.672 123.103 432.672 123.103C432.672 123.103 437.572 116.26 437.737 115.256C437.903 114.253 441.735 113.061 441.735 113.061L449 95.515L433.5 85Z" fill="#65617D"/>
<path opacity="0.1" d="M493.718 60.22L496.191 49C496.191 49 497.298 52.6538 498.41 53.5041L502.076 56.3134C502.076 56.3134 505.743 58.0082 507.022 58.0082C508.302 58.0082 515.208 59.7949 516.061 60.7313C516.914 61.6677 520.327 60.9841 520.327 60.9841C520.327 60.9841 523.14 61.9205 525.613 62.5123C528.086 63.104 529.279 67.1887 528.766 68.8318C528.343 70.4663 528.794 72.2029 529.959 73.4278C530.985 74.4504 531.498 77.7653 531.498 77.7653C532.747 78.1763 533.783 79.062 534.381 80.2299C535.234 82.097 534.957 86.1759 534.957 86.1759L522.275 104.026C522.275 104.026 522.442 110.92 521.935 112.442C521.428 113.965 523.722 139.978 523.722 139.978L526.368 184.68C526.368 184.68 522.869 187.656 522.102 187.995C521.336 188.334 520.569 172.19 520.569 171.593C520.569 170.995 500.872 142.184 500.872 142.184C500.872 142.184 498.226 137.938 498.226 137.014C498.226 136.089 495.753 127.494 495.753 127.494L492 110.92L493.718 60.22Z" fill="black"/>
<path d="M535.996 85.948C535.996 86.5186 535.996 86.9181 535.996 86.9181L523.301 104.607C523.301 104.607 523.474 111.454 522.966 112.96C522.666 113.845 523.318 122.929 523.924 130.392C524.351 135.773 524.755 140.309 524.755 140.309L525.88 159.139L527.398 184.702C527.398 184.702 523.901 187.658 523.134 187.995C522.366 188.331 521.599 172.297 521.599 171.704C521.599 171.111 501.875 142.501 501.875 142.501C501.875 142.501 499.226 138.272 499.226 137.365C499.226 136.458 496.751 127.91 496.751 127.91L493 111.448L494.702 61.1382L496.099 50C496.099 50 498.234 53.6347 499.342 54.4735L503.012 57.2581C503.012 57.2581 506.682 58.9699 507.963 58.9699C509.244 58.9699 516.163 60.7388 517.017 61.6688C517.871 62.5989 521.281 61.9199 521.281 61.9199C521.281 61.9199 524.097 62.85 526.573 63.4377C529.048 64.0254 530.249 68.0824 529.735 69.7144C529.309 71.3378 529.761 73.0637 530.929 74.2792C531.951 75.2892 532.464 78.5815 532.464 78.5815C533.715 78.9933 534.751 79.8746 535.35 81.0351C535.961 82.2619 536.019 84.6071 535.996 85.948Z" fill="#65617D"/>
<path opacity="0.1" d="M432 311C432.421 311 450.335 311.629 449.995 314.31C449.655 316.99 432 311 432 311Z" fill="black"/>
<path opacity="0.1" d="M436 316C436 316 447.52 317.908 444.493 319.653C441.467 321.398 436 316 436 316Z" fill="black"/>
<path opacity="0.1" d="M481 309C481 309 500.639 310.843 497.7 313.185C494.762 315.526 487.796 315.907 487.49 315.999C487.183 316.091 481 309 481 309Z" fill="black"/>
<path opacity="0.1" d="M478 318C478 318 488.666 319.668 488.993 321.592C489.32 323.517 478 318 478 318Z" fill="black"/>
<path opacity="0.1" d="M484 267C484 267 494.386 269.366 495 271L484 267Z" fill="black"/>
<path opacity="0.1" d="M445.636 275C445.636 275 439.829 276.436 445.452 279.319C451.075 282.202 445.636 275 445.636 275Z" fill="black"/>
<path opacity="0.1" d="M469 193C469.566 193 478.709 190.033 481.888 191.327C484.164 192.17 486.569 192.62 489 192.66L469 193Z" fill="black"/>
<path opacity="0.1" d="M470 202.617L469.908 203.452L462.029 223.964C462.029 223.964 460.756 230.176 459.656 233.703C458.96 236.101 458.407 238.538 458 241L464.997 198L470 202.617Z" fill="black"/>
<path d="M482 165.941L478.909 166H478.812L477 157.16L479.697 157L482 165.941Z" fill="#3F3D56"/>
<path d="M522 156.012L519.894 157.701L512.879 163.404C512.879 163.404 493.877 173.403 488.643 163.905C484.031 155.539 505.573 149.565 510.761 148.265C511.463 148.09 511.863 148 511.863 148L522 156.012Z" fill="#FBBEBE"/>
<path opacity="0.1" d="M440 72C440 72 443.99 73.8744 444.903 76.4361C445.816 78.9979 440 72 440 72Z" fill="black"/>
<path opacity="0.1" d="M429 98C429 98 423.209 104.937 425.563 107.618C427.918 110.299 429 98 429 98Z" fill="black"/>
<path opacity="0.1" d="M526 76C526 76 521.158 76.5186 521 81L526 76Z" fill="black"/>
<path opacity="0.1" d="M479 146C479.508 145.502 491.288 128.598 494 130.094L479 146Z" fill="black"/>
<path opacity="0.1" d="M501 33.4287C501.005 36.77 500.191 40.0602 498.632 43.0034L498.484 42.9746C497.217 42.7038 496.559 41.206 495.588 40.2727C494.366 39.0919 492.538 38.8324 491.044 39.6275C489.546 40.5402 488.684 42.2326 488.818 44C488.176 41.2693 488.38 38.3716 487.756 35.6352C487.131 32.8987 485.251 30.1335 482.673 30.0874C481.537 30.0874 480.27 30.4964 479.464 29.6553C478.981 29.1484 478.896 28.3476 478.521 27.7254C476.681 24.7067 471.075 26.2333 468.786 27.783C466.498 29.3327 463.845 31.8157 461 33.1407C461.078 21.938 470.095 12.921 481.139 13.0005C492.183 13.0801 501.073 22.2261 500.994 33.4287H501Z" fill="black"/>
<path d="M477.905 26.8992C478.273 27.5092 478.371 28.3017 478.861 28.8035C479.674 29.6416 480.993 29.2083 482.117 29.2311C484.733 29.2767 486.64 32.0134 487.274 34.7215C487.908 37.4297 487.7 40.2975 488.351 43C488.214 41.2491 489.092 39.5725 490.616 38.6726C492.132 37.8857 493.986 38.1426 495.226 39.3112C496.211 40.2348 496.879 41.7172 498.164 41.9851C499.449 42.2531 500.688 41.033 501.155 39.7046C501.622 38.3761 501.587 36.8938 501.893 35.5026C502.469 32.8743 504.197 30.7134 505.165 28.2105C506.307 25.1671 506.276 21.8142 505.079 18.7918C504.439 17.2068 503.489 15.7814 502.838 14.2021C501.858 11.7961 501.604 9.07085 500.406 6.79029C498.401 2.95323 493.676 1.03755 489.786 2.48001C487.937 3.16418 486.329 4.49832 484.445 5.09696C481.927 5.90086 479.23 5.29651 476.625 4.93732C474.021 4.57813 471.134 4.54393 469.037 6.23725C466.622 8.19283 465.965 11.8645 463.695 14.0083C462.744 14.9091 461.563 15.485 460.56 16.2888C459.558 17.0927 458.688 18.3585 458.832 19.7097C458.982 21.4543 460.71 23.0393 460.071 24.6585C459.84 25.1281 459.519 25.5484 459.126 25.8957C457.227 27.8646 455.815 30.2413 455 32.8401C459.558 34.254 464.496 29.2767 468.069 26.922C470.356 25.4225 476.038 23.9059 477.905 26.8992Z" fill="#7C5C5C"/>
<path opacity="0.1" d="M522 156.259L519.815 158C517.891 154.866 510 148.598 510 148.598L510.343 148.273C511.072 148.093 511.486 148 511.486 148L522 156.259Z" fill="black"/>
<path d="M524 152.951C524 152.951 523.246 154.901 522.475 156.578C521.704 158.256 520.853 159.792 520.814 158.545C520.729 156.1 511 147.883 511 147.883L512.321 146.548L513.846 145L524 152.951Z" fill="#E7EFFD"/>
<path opacity="0.1" d="M524.845 140.004L526 159C523.276 154.884 515.803 144.339 511 144.678L522.636 131.664C523.121 131.139 523.568 130.584 523.975 130C524.413 135.428 524.845 140.004 524.845 140.004Z" fill="black"/>
<path opacity="0.1" d="M524 152.558C524 152.558 523.225 154.408 522.433 156C519.427 152.036 515.297 147.355 512 146.469L513.567 145L524 152.558Z" fill="black"/>
<path d="M532.991 84L536.037 86.3856C536.037 86.3856 541.108 86.4721 541.617 90.7363C542.125 95.0004 546.761 96.9597 546.761 96.9597C546.761 96.9597 550.226 100.452 550.226 102.071C550.226 103.69 552.849 106.589 552.849 106.848C552.849 107.107 555.387 112.305 555.044 113.238C554.702 114.172 557.754 118.269 556.822 119.802C556.058 121.179 555.38 122.603 554.793 124.066C554.793 124.066 550.82 131.742 548.791 133.188C546.761 134.634 537.455 146.828 537.455 146.828C537.455 146.828 527.48 158.422 527.48 162C527.48 162 517.762 145.635 512 146.061L523.25 133.015C523.25 133.015 525.193 130.889 525.279 129.609C525.365 128.33 530.693 122.447 533.231 122.193C533.231 122.193 533.648 118.695 532.55 118.609C531.453 118.523 530.521 115.797 530.521 115.797C530.521 115.797 523.09 106.934 522.993 101.305C522.895 95.6746 532.991 84 532.991 84Z" fill="#65617D"/>
<path opacity="0.1" d="M537 92C537 92 529.646 97.1356 531.221 98.786C532.796 100.436 537 92 537 92Z" fill="black"/>
<path opacity="0.1" d="M537 114C537 114 550.603 109.5 552 114H537Z" fill="black"/>
<path opacity="0.1" d="M455 339.135C455 339.135 447.906 343.665 444.361 343.031C440.817 342.397 437.181 344.189 437.181 344.189C434.737 346.791 431.656 348.746 428.226 349.871C422.519 351.763 414.471 351.017 409.911 349.537C407.754 348.836 407.577 347.934 408.616 346.815C413.575 347.778 424.654 349.698 427.639 348.301C431.52 346.487 437.096 342.536 437.096 342.536C437.096 342.536 444.361 341.551 445.372 341.551C446.091 341.551 451.701 339.291 454.869 338L455 339.135Z" fill="black"/>
<path opacity="0.1" d="M499 348L498.924 348.485C498.924 348.485 497.17 352.335 487.6 353.736C478.029 355.138 478 350.496 478 350.496C478 350.496 478.035 349.999 478.094 349.248C481.134 350.413 487.763 351.714 499 348Z" fill="black"/>
<path opacity="0.1" d="M444 91C444 91 444 110.013 442.438 111.89C440.875 113.767 444 91 444 91Z" fill="black"/>
<path opacity="0.1" d="M520 97L522.85 104C522.85 104 523.986 97.1277 520 97Z" fill="black"/>
<g opacity="0.1">
<path d="M460.656 23.2867C461.28 21.6804 459.64 20.1089 459.426 18.3871C459.208 18.8728 459.115 19.4049 459.154 19.9356C459.264 21.2298 460.217 22.4373 460.472 23.6391C460.543 23.5272 460.605 23.4093 460.656 23.2867Z" fill="black"/>
<path d="M489.025 41.6947C488.413 39.0022 488.592 36.148 487.968 33.4498C487.344 30.7516 485.42 27.932 482.803 27.8858C481.647 27.8858 480.353 28.3018 479.538 27.4582C479.041 26.9498 478.96 26.1409 478.573 25.5227C476.701 22.4893 471.004 24.0262 468.67 25.5805C465.204 27.8916 460.373 32.7622 455.89 31.6645C455.676 32.1787 455.48 32.7045 455.312 33.2418C459.882 34.6747 464.834 29.6307 468.416 27.2445C470.727 25.696 476.447 24.1591 478.319 27.1925C478.689 27.8107 478.787 28.6138 479.278 29.1222C480.093 29.9716 481.416 29.5325 482.543 29.5556C485.166 29.6018 487.078 32.3751 487.714 35.1196C488.349 37.864 488.141 40.7702 488.794 43.5089C488.752 42.8949 488.831 42.2785 489.025 41.6947Z" fill="black"/>
<path d="M501.875 38.4938C501.413 39.8458 500.194 41.0938 498.877 40.8049C497.559 40.516 496.918 39.0311 495.936 38.0893C494.686 36.9186 492.835 36.6617 491.313 37.448C489.862 38.313 488.993 39.8961 489.043 41.5849C489.389 40.5412 490.107 39.6611 491.059 39.112C492.579 38.3146 494.439 38.5749 495.681 39.7591C496.669 40.6951 497.34 42.1973 498.628 42.4689C499.917 42.7404 501.159 41.504 501.627 40.1578C501.87 39.3584 502.027 38.5351 502.095 37.7022C502.039 37.9705 501.965 38.2349 501.875 38.4938Z" fill="black"/>
<path d="M505.896 26.8458C504.937 29.3822 503.192 31.5662 502.615 34.2355C502.499 34.7729 502.43 35.3218 502.366 35.8764C502.944 33.2187 504.677 31.0404 505.642 28.5098C506.068 27.3713 506.335 26.1794 506.434 24.968C506.302 25.6066 506.123 26.2343 505.896 26.8458Z" fill="black"/>
</g>
<path d="M383 88.2061C383.114 88.2061 383.206 88.1138 383.206 88C383.206 87.8861 383.114 87.7938 383 87.7938C382.886 87.7938 382.794 87.8861 382.794 88C382.794 88.1138 382.886 88.2061 383 88.2061Z" fill="#E6E8EC"/>
<path opacity="0.1" d="M456.5 354C483.838 354 506 351.761 506 349C506 346.239 483.838 344 456.5 344C429.162 344 407 346.239 407 349C407 351.761 429.162 354 456.5 354Z" fill="#1B51E5"/>
<path d="M274.041 18.2523L124 115.479L221.916 291.868C222.841 293.536 224.422 294.741 226.277 295.192L314.995 316.808C318.128 317.565 321.365 316.034 322.764 313.134L366.771 221.817L415 157.421L300.548 22.1778C293.959 14.3955 282.608 12.7144 274.041 18.2523Z" fill="#DCDFED"/>
<path opacity="0.1" d="M417 158.419L416.575 158.992L388.325 196.714L387.814 197.396L368.772 222.821L331.134 300.93L330.079 303.113L324.766 314.132C323.365 317.037 320.122 318.568 316.986 317.805L228.269 296.179C226.414 295.73 224.832 294.524 223.908 292.856L215.377 277.516L213.845 274.754L152.266 163.783L151.738 162.837L126 116.48L129.11 114.463L152.685 99.1916L153.23 98.8363L202.875 66.6668L206.008 64.6383L276.033 19.2607C284.599 13.7123 295.96 15.3915 302.551 23.1801L354.761 84.8947L357.056 87.6452L394.951 132.421L395.158 132.668L414.212 155.176L416.61 158.012L417 158.419Z" fill="black"/>
<path opacity="0.1" d="M393 131.921L388.383 163.96L386.991 173.628L386.195 194.225L386.132 195.832L381.99 303.447C381.91 305.468 380.935 307.349 379.331 308.583C377.726 309.817 375.656 310.276 373.679 309.837L329.033 299.882L328.552 299.774L214.05 274.252L211.948 273.783L149 259.743L150.444 162.987L150.489 159.755L150.925 130.468L151.406 98.1437L200.972 66.0253L204.1 64C250.075 68.7085 311.218 77.7651 352.639 84.2242L354.93 86.9704L392.736 131.675L393 131.921Z" fill="black"/>
<path d="M399 93.7727L393.56 131.51L388.572 166.068L387.179 175.708L386.382 196.292L382.174 305.451C382.094 307.471 381.119 309.351 379.513 310.584C377.906 311.817 375.835 312.276 373.856 311.837L328.693 301.78L214.101 276.273L149 261.772L150.491 161.843L150.926 132.574L151.436 98.3355L151.958 63.1197C162.724 62.6109 180.438 63.7601 201.587 65.8814C248.939 70.6215 313.49 80.2102 355.695 86.8142C381.538 90.8567 399 93.7727 399 93.7727Z" fill="#1B51E5"/>
<path opacity="0.1" d="M412.619 154.609L388.42 166.457L264.922 226.927L151.11 133.016L128.103 114L125 116.012L150.681 162.25L149.192 262.141L214.202 276.635L222.697 291.936C223.619 293.6 225.197 294.802 227.048 295.251L315.568 316.81C318.692 317.561 321.918 316.036 323.314 313.146L328.615 302.155L373.714 312.209C375.689 312.647 377.758 312.188 379.362 310.956C380.966 309.723 381.94 307.843 382.02 305.824L386.222 196.709L414.92 158.415L415 157.449L412.619 154.609Z" fill="black"/>
<path d="M124.234 116L114.012 290.645C113.816 293.984 116.077 296.971 119.349 297.698L390.818 357.842C392.744 358.263 394.758 357.833 396.343 356.664C397.928 355.495 398.93 353.699 399.091 351.739L415 157.864L264.365 231.576L124.234 116Z" fill="#DCDFED"/>
<path opacity="0.1" d="M116.563 294.479L257.373 207.501C261.678 204.887 267.237 205.758 270.538 209.564L396.569 356.729C397.027 357.256 397.25 356.878 396.569 356.729L116.563 294.479C115.865 294.898 115.762 294.302 116.563 294.479Z" fill="black"/>
<path d="M116.733 293.824L256.466 209.575C261.027 206.826 266.908 207.75 270.402 211.764L395.632 355.508C396.057 355.998 396.12 356.706 395.788 357.263C395.456 357.821 394.804 358.104 394.169 357.965L117.186 296.579C116.582 296.449 116.12 295.964 116.02 295.355C115.92 294.747 116.202 294.14 116.733 293.824Z" fill="#E3E5F1"/>
<defs>
<linearGradient id="paint0_linear_0_1086" x1="558.021" y1="354.985" x2="558.021" y2="-0.00105794" gradientUnits="userSpaceOnUse">
<stop stop-color="#808080" stop-opacity="0.25"/>
<stop offset="0.54" stop-color="#808080" stop-opacity="0.12"/>
<stop offset="1" stop-color="#808080" stop-opacity="0.1"/>
</linearGradient>
</defs>
</svg>
