<svg width="420" height="443" viewBox="0 0 420 443" fill="none" xmlns="http://www.w3.org/2000/svg">
<path d="M214 388.78V413H221L219.645 387L214 388.78Z" fill="#AAABB0"/>
<path d="M114 384.78V409H121L119.646 383L114 384.78Z" fill="#AAABB0"/>
<rect x="222" y="346" width="9" height="42" rx="4.5" fill="#AAABB0"/>
<rect x="111" y="337" width="9" height="52" rx="4.5" fill="#AAABB0"/>
<path d="M243 93.6304C243 93.6304 251.727 89.9621 253.036 93.6304C254.345 97.2987 255 129 255 129H246.705L243 93.6304Z" fill="#AAABB0"/>
<path d="M147 93.6304C147 93.6304 138.272 89.9621 136.963 93.6304C135.654 97.2987 135 129 135 129H143.29L147 93.6304Z" fill="#AAABB0"/>
<path d="M148.333 61.6719L147 89H153V61L148.333 61.6719Z" fill="#AAABB0"/>
<path d="M143 130L144.744 91.4207C144.744 91.4207 144.091 82.8724 164.773 85.5027C185.456 88.1329 246 93.3934 246 93.3934V130H143Z" fill="#33323D"/>
<path d="M226 330.732L222.713 388.883C222.713 388.883 174.504 415.26 116 390.18L121.259 329L226 330.732Z" fill="#33323D"/>
<path d="M180 100.171L181.091 138H249L245.057 88L180 100.171Z" fill="#444053"/>
<rect x="124" y="306" width="63" height="80" fill="#4C4981"/>
<path d="M164.025 338.445C164.025 338.445 173.248 331.227 174.783 333.412C176.318 335.597 169.302 345.007 166.442 343.912C163.583 342.816 164.025 338.445 164.025 338.445Z" fill="#FFB9B9"/>
<rect y="127" width="417" height="208" fill="#504F60"/>
<path d="M143.447 59.523C143.447 59.523 140.191 29.0971 143.447 25.4071C146.703 21.7171 201.407 -13.2789 251.988 27.7932C251.988 27.7932 256.761 28.0148 255.895 38.8761C255.384 45.7504 255.419 52.6543 255.999 59.523C255.999 59.523 147.14 67.3463 143.447 59.523Z" fill="#33323D"/>
<path opacity="0.1" d="M143.447 59.523C143.447 59.523 140.191 29.0971 143.447 25.4071C146.703 21.7171 201.407 -13.2789 251.988 27.7932C251.988 27.7932 256.761 28.0148 255.895 38.8761C255.384 45.7504 255.419 52.6543 255.999 59.523C255.999 59.523 147.14 67.3463 143.447 59.523Z" fill="black"/>
<path d="M143.447 64.523C143.447 64.523 140.191 34.0971 143.447 30.4071C146.703 26.7171 201.407 -8.2789 251.988 32.7932C251.988 32.7932 256.761 33.0148 255.895 43.8761C255.384 50.7504 255.419 57.6543 255.999 64.523C255.999 64.523 147.14 72.3463 143.447 64.523Z" fill="#33323D"/>
<path d="M258.364 50C258.364 50 261.885 63.0886 260.788 65.2678C259.692 67.4471 259.89 73.5594 259.89 73.5594C259.89 73.5594 260.128 77.486 258.364 77.9179C256.6 78.3498 255.06 78.5723 256.487 79.8812C257.914 81.19 256.487 83.1533 256.487 83.1533C256.487 83.1533 255.714 86.2095 256.487 88.1728C257.26 90.1361 251.969 90.9541 252.418 93.4082C252.867 95.8623 254.347 102.786 252.418 103.009C250.489 103.231 253.078 111.732 251.341 111.732C249.603 111.732 248.368 127 248.368 127C248.368 127 236.146 116.752 228 119.585C228 119.585 228.661 111.078 231.303 108.022C233.946 104.965 233.147 97.1188 233.147 97.1188L246.254 58.0691L258.364 50Z" fill="#4C4981"/>
<path d="M193.453 229.615C190.684 232.703 187.697 216.213 187.697 216.213C187.697 216.213 179.812 227.172 174.696 219.868C171.153 214.807 173.947 200.471 175.975 192.148C176.883 188.448 177.65 185.934 177.65 185.934L189.162 184C189.162 184 189.2 186.527 189.456 189.595C189.801 193.74 190.549 198.885 192.142 200.116C194.949 202.25 196.228 226.501 193.453 229.615Z" fill="#AE6E79"/>
<path opacity="0.1" d="M186.796 35.0627C186.796 35.0627 166.313 34.8483 161.307 45.6734C156.3 56.4984 156.078 60.1891 154.117 61.9175C152.156 63.6458 175.463 72.749 175.463 72.749L176.555 110C176.555 110 181.13 105.393 188.535 107.479C195.94 109.565 205.312 107.479 205.312 107.479C205.312 107.479 204.874 106.693 210.979 107.479C217.083 108.265 236.468 98.0898 236.468 98.0898C236.468 98.0898 236.789 81.7937 236.357 78.324C235.926 74.8543 250.187 49.3575 250.187 49.3575C250.187 49.3575 261.298 38.7469 249.756 35.0627C249.756 35.0627 245.671 28.9419 235.161 29.0004C224.652 29.0589 186.796 35.0627 186.796 35.0627Z" fill="black"/>
<path d="M187.761 34.0627C187.761 34.0627 167.3 33.8483 162.299 44.6734C157.298 55.4984 157.076 59.1891 155.117 60.9175C153.158 62.6458 176.44 71.749 176.44 71.749L177.53 109C177.53 109 182.101 104.393 189.498 106.479C196.895 108.565 206.257 106.479 206.257 106.479C206.257 106.479 205.82 105.693 211.918 106.479C218.016 107.265 237.38 97.0898 237.38 97.0898C237.38 97.0898 244.993 84.7443 244.562 81.2811C244.131 77.8178 259.794 51.6063 259.794 51.6063C259.794 51.6063 262.19 37.7469 250.653 34.0627C250.653 34.0627 246.573 27.9419 236.074 28.0004C225.576 28.0589 187.761 34.0627 187.761 34.0627Z" fill="#4C4981"/>
<path opacity="0.1" d="M189 189.468C184.763 188.114 178.115 191.101 176 192C176.876 188.367 177.616 185.899 177.616 185.899L188.716 184C188.716 184 188.735 186.481 189 189.468Z" fill="black"/>
<path d="M161.885 61H155.58C155.58 61 154.275 74.2981 155.58 78.2208C156.886 82.1436 157.538 81.5748 157.101 84.4776C156.664 87.3804 160.149 91.8262 160.149 91.8262C160.149 91.8262 160.58 102.784 162.76 106.863C164.94 110.943 160.365 129.236 160.365 129.236C161.612 132.394 163.459 135.28 165.802 137.735C169.502 141.436 171.461 155.165 170.371 160.396C169.281 165.626 173.419 167.587 173.419 167.587C173.419 167.587 175.161 192 175.814 192C176.467 192 189.084 185.462 193 191.124L189.952 168.679L190.174 125.313C190.174 125.313 186.036 119.861 188.216 115.068C190.396 110.276 186.473 98.9395 186.473 98.9395L180.814 73.6639L161.885 61Z" fill="#4C4981"/>
<path d="M121.608 404.872C121.608 404.872 112.471 402.91 112.255 404.872C112.04 406.833 101.375 426.886 114.651 432.77C127.927 438.655 163.382 451.293 221.042 434.948C221.042 434.948 224.736 436.255 223.868 428.194C223 420.132 223 411.194 223 411.194C223 411.194 214.293 408.795 207.766 409.671C201.239 410.547 144.453 422.094 121.608 404.872Z" fill="#33323D"/>
<path opacity="0.1" d="M121.608 404.872C121.608 404.872 112.471 402.91 112.255 404.872C112.04 406.833 101.375 426.886 114.651 432.77C127.927 438.655 163.382 451.293 221.042 434.948C221.042 434.948 224.736 436.255 223.868 428.194C223 420.132 223 411.194 223 411.194C223 411.194 214.293 408.795 207.766 409.671C201.239 410.547 144.453 422.094 121.608 404.872Z" fill="black"/>
<path d="M121.608 401.872C121.608 401.872 112.471 399.91 112.255 401.872C112.04 403.833 101.375 423.886 114.651 429.77C127.927 435.655 163.382 448.293 221.042 431.948C221.042 431.948 224.736 433.255 223.868 425.194C223 417.132 223 408.194 223 408.194C223 408.194 214.293 405.795 207.766 406.671C201.239 407.547 144.453 419.094 121.608 401.872Z" fill="#33323D"/>
<path d="M175.049 69.2975C174.488 72.4699 173.216 75.5191 173.02 78.7304C172.824 81.9418 174.071 85.5943 177.053 86.8528C177.885 87.1 178.691 87.4259 179.461 87.826C180.61 88.598 181.08 90.0512 181.321 91.4136C181.642 93.1725 181.718 94.9667 181.549 96.7464C181.386 98.5369 181.001 100.464 181.889 102.027C183.449 104.797 187.514 104.389 190.608 103.61L189.544 111.804C189.459 112.453 189.407 113.186 189.883 113.627C190.338 113.945 190.903 114.067 191.449 113.964C194.138 113.796 196.905 113.426 199.209 112.018C201.513 110.61 203.229 107.989 202.792 105.349C202.283 102.287 199.098 99.8539 199.529 96.7788C199.862 94.3979 202.204 92.8863 203.745 91.0568C206.531 87.7092 206.681 82.623 204.495 78.8342C202.309 75.0455 198.086 72.697 193.74 72.2688C191.332 72.0288 188.826 72.3207 186.561 71.4903C184.964 70.9079 183.733 69.6166 183.233 68" fill="#444053"/>
<path d="M100 358.902L102.255 353.805C102.255 353.805 114.429 342.035 117.227 341.21C120.025 340.385 131.443 336.791 133.168 336.791C134.893 336.791 166.343 335 166.343 335L170 343.947L130.532 352.94L117.227 363L100 358.902Z" fill="#767D9F"/>
<path d="M196 225.463L193.908 241.514L193.101 247.692L183.703 249C183.703 249 182.687 246.829 181.25 243.495C176.889 233.374 168.678 212.504 173.439 208.902C179.768 204.103 181.309 220.017 181.309 220.017L188.524 216.525L196 225.463Z" fill="#FFB9B9"/>
<rect x="147" y="255" width="47" height="71" fill="white"/>
<rect opacity="0.1" x="147" y="255" width="47" height="71" fill="black"/>
<path d="M168.155 252.09L214.864 258.993L204.432 329.529L157.723 322.626L168.155 252.09Z" fill="white"/>
<path d="M172.552 258.817L196.594 262.37L191.225 298.673L167.183 295.12L172.552 258.817Z" fill="#1B51E5"/>
<path d="M164.605 305.452L193.733 309.756L192.567 317.64L163.439 313.335L164.605 305.452Z" fill="#1B51E5"/>
<path opacity="0.1" d="M206 75C220.912 75 233 62.9117 233 48C233 33.0883 220.912 21 206 21C191.088 21 179 33.0883 179 48C179 62.9117 191.088 75 206 75Z" fill="black"/>
<path d="M206 74C220.912 74 233 61.9117 233 47C233 32.0883 220.912 20 206 20C191.088 20 179 32.0883 179 47C179 61.9117 191.088 74 206 74Z" fill="#AE6E79"/>
<path d="M183.665 67.7526C183.478 67.0452 183.546 66.2948 183.856 65.632C184.904 63.4589 187.887 63.2685 190.304 63.3801C195.988 63.6427 202.225 63.6756 206.671 60.0975C208.515 58.6268 210.577 54.9306 213.257 55.6331C215.641 56.2568 216.636 59.4803 219.119 60.1959C220.917 60.7146 222.781 59.8874 224.612 59.5394C227.246 59.0208 229.947 59.4541 232.621 59.4738C235.295 59.4935 238.199 58.9879 240.023 57.038C242.487 54.4119 242.085 50.3086 241.868 46.7108C241.597 42.0634 241.914 37.4006 242.809 32.8318C243.705 28.2887 245.082 23.2071 242.566 19.3139C240.168 15.6045 235.202 14.5869 231.81 11.7441C228.636 9.11801 226.956 4.90966 223.604 2.47394C219.382 -0.592046 213.646 -0.152172 208.456 0.379616L197.194 1.5745C194.289 1.88307 191.266 2.23103 188.875 3.9577C184.561 7.06964 183.968 13.5365 179.885 16.9438C178.067 18.4539 175.742 19.2023 173.668 20.3315C171.593 21.4608 169.591 23.2465 169.354 25.5838C169.156 27.5533 170.223 29.3719 170.743 31.2693C171.975 35.7993 170.052 40.4607 168.82 45.0236C167.589 49.5864 167.352 55.1275 170.928 58.1541C171.652 58.7713 172.495 59.244 173.2 59.8874C175.617 62.0868 175.946 65.7961 175.387 69" fill="#444053"/>
<path d="M208.5 81C208.776 81 209 80.1046 209 79C209 77.8954 208.776 77 208.5 77C208.224 77 208 77.8954 208 79C208 80.1046 208.224 81 208.5 81Z" fill="#444053"/>
<path d="M208.5 89C208.776 89 209 88.1046 209 87C209 85.8954 208.776 85 208.5 85C208.224 85 208 85.8954 208 87C208 88.1046 208.224 89 208.5 89Z" fill="#444053"/>
<path d="M194.53 230.554C195.248 229.737 195.725 227.638 196 224.869L188 215C188 215 191.389 234.133 194.53 230.554Z" fill="#AE6E79"/>
<path opacity="0.1" d="M203.076 390.336C203.076 390.336 190.268 409.943 150.251 407.842C112.553 405.897 94.1525 387.529 95.03 381.045C95.9074 374.561 92.6268 358.78 100.701 354.241C105.383 351.616 111.545 353.172 115.893 354.948C118.959 356.181 122.468 355.558 124.91 353.347C128.884 349.8 136.297 345.806 147.999 348.951C149.504 349.348 151.093 349.319 152.582 348.866C157.454 347.395 169.051 344.84 177.466 350.513C180.181 352.366 183.732 352.5 186.581 350.857L186.699 350.786C190.628 348.406 208.963 370.885 208.963 370.885C208.963 370.885 209.84 388.177 203.076 390.336Z" fill="black"/>
<path d="M203.076 391.336C203.076 391.336 190.268 410.943 150.251 408.842C112.553 406.897 94.1525 388.529 95.03 382.045C95.9074 375.561 92.6268 359.78 100.701 355.241C105.383 352.616 111.545 354.172 115.893 355.948C118.959 357.181 122.468 356.558 124.91 354.347C128.884 350.8 136.297 346.806 147.999 349.951C149.504 350.348 151.093 350.319 152.582 349.866C157.454 348.395 169.051 345.84 177.466 351.513C180.181 353.366 183.732 353.5 186.581 351.857L186.699 351.786C190.628 349.406 208.963 371.885 208.963 371.885C208.963 371.885 209.84 389.177 203.076 391.336Z" fill="#767D9F"/>
<path opacity="0.1" d="M150 398C164.359 398 176 386.359 176 372C176 357.641 164.359 346 150 346C135.641 346 124 357.641 124 372C124 386.359 135.641 398 150 398Z" fill="black"/>
<path d="M150 399C164.359 399 176 387.359 176 373C176 358.641 164.359 347 150 347C135.641 347 124 358.641 124 373C124 387.359 135.641 399 150 399Z" fill="#FFB9B9"/>
<path d="M142.679 350.616C139.921 351.354 137.203 352.764 135.857 355.081C135.045 356.478 134.762 358.155 133.587 359.317C131.925 360.969 129.121 361.001 126.871 361.928C124.621 362.855 123.137 366.119 125.34 367.15C123.044 367.268 121.342 369.363 121.059 371.445C120.775 373.527 121.573 375.603 122.345 377.588C124.865 384.011 127.577 390.714 133.132 395.283C142.184 402.738 155.827 402.392 167.987 401.602C168.98 401.635 169.965 401.41 170.843 400.949C172.163 400.088 172.328 398.436 172.546 396.987C173.463 390.799 176.854 385.179 179.07 379.272C181.287 373.364 182.198 366.426 178.463 361.197C172.968 353.442 151.928 348.136 142.679 350.616Z" fill="#B96B6B"/>
<path opacity="0.1" d="M193 241.367L192.235 247.667L183.325 249C183.325 249 182.362 246.787 181 243.387L192.857 241L193 241.367Z" fill="black"/>
<path d="M202.649 378L207.989 371.688L206.92 336.875C207.446 334.363 207.803 331.818 207.989 329.257C208.2 325.556 205.319 317.292 205.319 317.292C205.766 315.637 206.373 314.032 207.131 312.5C208.412 309.889 205.325 304.014 205.325 304.014C205.325 304.014 200.728 288.785 202.649 281.167C204.57 273.549 202.181 269.201 202.181 269.201C202.181 269.201 200.305 260.715 200.516 257.236C200.728 253.757 196.245 250.486 196.245 250.486L192.832 242L179.174 244.611V273.986C179.174 273.986 180.025 302.056 179.174 307.5C178.322 312.944 180.877 318.16 180.877 318.16C180.877 318.16 179.385 326.208 180.666 329.257C181.946 332.305 184.508 339.701 184.508 339.701C184.032 342.345 184.179 345.065 184.937 347.639C186.218 351.451 184.937 353.625 184.937 353.625L202.649 378Z" fill="#767D9F"/>
<g opacity="0.1">
<path d="M242.421 31.4057C241.682 35.1688 241.351 38.9979 241.432 42.8293C241.488 39.6435 241.828 36.4685 242.447 33.3407C243.024 30.4864 243.758 27.4136 243.6 24.5657C243.359 26.8684 242.965 29.1532 242.421 31.4057Z" fill="black"/>
<path d="M173.176 57.9429C172.475 57.3 171.636 56.85 170.916 56.2393C169.002 54.6386 168.197 52.3179 168.039 49.8107C167.849 53.025 168.518 56.1364 170.916 58.1679C171.636 58.7786 172.475 59.2414 173.176 59.8714C174.641 61.2944 175.491 63.2171 175.548 65.2393C175.738 62.5393 175.181 59.73 173.176 57.9429Z" fill="black"/>
<path d="M171.086 33.9386C171.2 32.5808 171.081 31.2138 170.732 29.895C170.352 28.5193 169.671 27.1758 169.422 25.7936C169.422 25.9415 169.369 26.0958 169.35 26.2565C169.16 28.185 170.221 29.9658 170.732 31.8236C170.92 32.5155 171.039 33.2239 171.086 33.9386Z" fill="black"/>
<path d="M239.65 55.1079C237.835 57.0365 234.946 57.5122 232.286 57.4929C229.626 57.4736 226.933 57.0493 224.319 57.5636C222.497 57.9236 220.643 58.7272 218.854 58.2065C216.384 57.5057 215.395 54.3493 213.03 53.7386C210.337 53.0443 208.287 56.6636 206.478 58.1036C202.056 61.575 195.851 61.5429 190.197 61.3179C187.793 61.2086 184.825 61.395 183.79 63.5293C183.474 64.1765 183.406 64.9137 183.6 65.6057L175.593 66.84C175.563 67.4867 175.491 68.1309 175.377 68.7686L183.6 67.4829C183.406 66.7909 183.474 66.0536 183.79 65.4065C184.825 63.2722 187.793 63.0857 190.197 63.195C195.851 63.4522 202.056 63.4843 206.478 59.9807C208.313 58.5407 210.363 54.9215 213.03 55.6157C215.395 56.22 216.384 59.3829 218.854 60.0836C220.643 60.585 222.497 59.7815 224.319 59.4407C226.939 58.9265 229.626 59.3507 232.286 59.37C234.946 59.3893 237.835 58.8943 239.65 56.985C241.464 55.0757 241.727 52.2279 241.615 49.4507C241.537 51.6043 241.084 53.5972 239.65 55.1079Z" fill="black"/>
</g>
<g opacity="0.1">
<path d="M178.688 85.2208C177.926 84.8112 177.126 84.4794 176.3 84.2302C174.896 83.5789 173.781 82.4153 173.175 80.9679C173.66 83.2462 174.889 85.3198 176.947 86.2113C177.773 86.4605 178.573 86.7923 179.335 87.2019C179.822 87.5532 180.216 88.023 180.48 88.5689C180.221 87.2745 179.749 85.9538 178.688 85.2208Z" fill="black"/>
<path d="M189.739 101.288C186.756 102.06 182.861 102.463 181.224 99.8811C181.275 100.503 181.451 101.108 181.742 101.658C183.139 104.2 186.556 104.114 189.461 103.487L189.739 101.288Z" fill="black"/>
<path d="M201.826 103.097C202.241 105.778 200.532 108.453 198.268 109.859C196.003 111.266 193.24 111.656 190.574 111.841C190.15 111.897 189.72 111.847 189.319 111.695C189.07 112.266 189.177 112.932 189.589 113.393C190.001 113.854 190.642 114.022 191.221 113.822C193.887 113.65 196.631 113.274 198.915 111.841C201.199 110.408 202.907 107.74 202.467 105.052C202.343 104.373 202.127 103.715 201.826 103.097V103.097Z" fill="black"/>
<path d="M204.699 79.1915C205.5 82.4451 204.783 85.8936 202.758 88.5358C201.231 90.4245 198.908 91.9368 198.578 94.3604C198.468 95.4746 198.694 96.5966 199.225 97.5764C199.167 97.1669 199.167 96.751 199.225 96.3415C199.555 93.9179 201.878 92.3792 203.405 90.517C205.916 87.4198 206.265 82.8566 204.699 79.1915Z" fill="black"/>
</g>
<g opacity="0.1">
<path d="M127.443 362.686C129.661 361.772 132.433 361.739 134.083 360.092C135.243 358.937 135.524 357.27 136.326 355.889C137.63 353.579 140.337 352.185 143.063 351.452C152.193 348.987 173.011 354.254 178.437 361.889C180.027 364.198 180.894 366.925 180.928 369.724C181.137 366.493 180.263 363.283 178.443 360.598C173.017 352.963 152.22 347.696 143.07 350.161C140.343 350.894 137.657 352.289 136.333 354.598C135.53 355.979 135.25 357.646 134.089 358.801C132.439 360.442 129.667 360.475 127.45 361.396C125.761 362.09 124.509 364.139 124.965 365.515C125.333 364.256 126.24 363.221 127.443 362.686Z" fill="black"/>
<path d="M121.704 372.111C121.978 370.036 123.661 367.96 125.937 367.843C125.453 367.642 125.086 367.235 124.939 366.734C123.175 367.386 121.919 368.957 121.678 370.814C121.616 371.342 121.616 371.875 121.678 372.403C121.704 372.306 121.704 372.209 121.704 372.111Z" fill="black"/>
</g>
<rect x="200" y="137" width="60" height="77" fill="white"/>
<rect opacity="0.1" x="200" y="137" width="60" height="77" fill="black"/>
<path d="M223.469 150.758L281.981 140.697L295.106 216.97L236.594 227.031L223.469 150.758Z" fill="white"/>
<path d="M237.65 202.753L251.398 200.389L254.481 218.309L240.734 220.673L237.65 202.753Z" fill="#1B51E5"/>
<path d="M256.673 199.479L270.421 197.115L273.504 215.035L259.757 217.398L256.673 199.479Z" fill="#1B51E5"/>
<path d="M235.653 179.137L283.863 170.862L286.956 188.862L238.745 197.138L235.653 179.137Z" fill="#1B51E5"/>
<path d="M231.634 157.653L279.845 149.378L280.535 153.394L232.324 161.669L231.634 157.653Z" fill="#1B51E5"/>
<path d="M233.215 165.04L281.426 156.765L282.116 160.781L233.905 169.056L233.215 165.04Z" fill="#1B51E5"/>
<path d="M233.052 115C233.052 115 206.365 142.86 219.763 149.938C233.161 157.016 241.882 126.39 241.882 126.39L244 119.424L233.052 115Z" fill="#AE6E79"/>
<path opacity="0.1" d="M231.354 112.992L228 120.539C228 120.539 244.542 122.905 248 128L245.95 114.683L243.517 109L231.354 112.992Z" fill="black"/>
<path d="M231.354 111.992L228 119.539C228 119.539 244.542 121.905 248 127L245.95 113.683L243.517 108L231.354 111.992Z" fill="#4C4981"/>
<path d="M332.327 249.14L332 249.52L332.452 249.86L332.94 249.79L333 249.22L332.327 249.14Z" fill="#464A5F"/>
<path opacity="0.1" d="M332.327 249.14L332 249.52L332.452 249.86L332.94 249.79L333 249.22L332.327 249.14Z" fill="black"/>
<path d="M333 249.66L332.44 250L332 249.491L332.27 249.075L332.52 249L333 249.66Z" fill="#9C9CA1"/>
<path opacity="0.1" d="M333 249.66L332.44 250L332 249.491L332.27 249.075L332.52 249L333 249.66Z" fill="black"/>
<path d="M396 203.99L369.307 165.379C368.829 164.683 368.095 164.206 367.266 164.053C366.436 163.9 365.58 164.083 364.886 164.563L305.384 205.466C303.935 206.462 303.564 208.446 304.556 209.899L331.177 249L396 203.99Z" fill="#9C9CA1"/>
<path opacity="0.1" d="M396 203.99L369.307 165.379C368.829 164.683 368.095 164.206 367.266 164.053C366.436 163.9 365.58 164.083 364.886 164.563L305.384 205.466C303.935 206.462 303.564 208.446 304.556 209.899L331.177 249L396 203.99Z" fill="black"/>
<path d="M397 203.969L370.307 165.379C369.829 164.683 369.093 164.206 368.263 164.053C367.432 163.9 366.575 164.083 365.88 164.563L306.386 205.47C304.938 206.466 304.565 208.446 305.551 209.901L332.172 249L397 203.969Z" fill="#9C9CA1"/>
<path d="M419.487 211.191L397.451 204L333 249.39L355.387 256.831C356.403 257.167 357.515 256.996 358.388 256.37L419.669 212.409C419.904 212.275 420.033 212.007 419.993 211.736C419.952 211.465 419.751 211.248 419.487 211.191Z" fill="#464A5F"/>
<path opacity="0.1" d="M419.487 211.191L397.451 204L333 249.39L355.387 256.831C356.403 257.167 357.515 256.996 358.388 256.37L419.669 212.409C419.904 212.275 420.033 212.007 419.993 211.736C419.952 211.465 419.751 211.248 419.487 211.191Z" fill="black"/>
<path d="M419.503 211.198L397.463 204L333 249.397L355.391 256.827C356.406 257.168 357.52 256.999 358.392 256.372L419.685 212.404C419.911 212.266 420.032 212.004 419.993 211.739C419.953 211.475 419.759 211.261 419.503 211.198Z" fill="#464A5F"/>
<g opacity="0.1">
<path d="M386.448 202.688L384.816 200.346C384.612 200.064 384.223 199.992 383.932 200.183L381.508 201.803C381.225 202.003 381.148 202.389 381.332 202.681L382.834 204.991C383.029 205.278 383.415 205.362 383.711 205.18L386.266 203.573C386.554 203.375 386.635 202.984 386.448 202.688Z" fill="black"/>
<path d="M382.093 205.707L380.455 203.371C380.251 203.089 379.861 203.017 379.571 203.208L377.153 204.841C376.868 205.039 376.788 205.425 376.971 205.72L378.472 208.029C378.665 208.319 379.052 208.405 379.35 208.225L381.911 206.618C382.057 206.522 382.158 206.372 382.193 206.2C382.227 206.029 382.191 205.851 382.093 205.707Z" fill="black"/>
<path d="M377.517 208.875L375.879 206.54C375.675 206.257 375.285 206.186 374.995 206.377L372.57 208.01C372.284 208.21 372.206 208.6 372.395 208.895L373.896 211.204C374.091 211.492 374.478 211.575 374.774 211.393L377.328 209.786C377.475 209.692 377.578 209.542 377.614 209.37C377.649 209.199 377.614 209.02 377.517 208.875Z" fill="black"/>
<path d="M372.882 212.089L371.244 209.747C371.041 209.469 370.656 209.397 370.367 209.584L367.942 211.224C367.659 211.423 367.582 211.809 367.767 212.102L369.268 214.412C369.461 214.698 369.843 214.783 370.139 214.607L372.7 212.994C372.844 212.898 372.945 212.749 372.979 212.579C373.013 212.409 372.978 212.233 372.882 212.089Z" fill="black"/>
<path d="M368.254 215.297L366.616 212.961C366.412 212.679 366.023 212.607 365.732 212.798L363.314 214.431C363.029 214.629 362.949 215.015 363.132 215.31L364.634 217.619C364.827 217.909 365.213 217.995 365.511 217.814L368.072 216.201C368.216 216.106 368.317 215.956 368.351 215.787C368.385 215.617 368.35 215.441 368.254 215.297Z" fill="black"/>
<path d="M363.828 218.797L361.793 215.895C361.749 215.83 361.682 215.785 361.605 215.77C361.528 215.756 361.448 215.773 361.384 215.817L358.407 217.827C358.34 217.87 358.294 217.938 358.278 218.015C358.262 218.092 358.278 218.172 358.322 218.237L360.188 221.107C360.276 221.244 360.459 221.284 360.597 221.198L363.743 219.246C363.819 219.202 363.873 219.127 363.889 219.041C363.906 218.954 363.883 218.865 363.828 218.797Z" fill="black"/>
<path d="M359.2 222.004L357.152 219.103C357.107 219.037 357.038 218.992 356.96 218.977C356.882 218.963 356.801 218.98 356.736 219.025L353.759 221.035C353.626 221.128 353.592 221.31 353.681 221.445L355.547 224.314C355.587 224.383 355.654 224.432 355.731 224.449C355.809 224.466 355.891 224.45 355.956 224.405L359.096 222.453C359.177 222.415 359.236 222.342 359.257 222.254C359.277 222.167 359.256 222.074 359.2 222.004Z" fill="black"/>
<path d="M355.098 224.847L353.064 221.972C352.969 221.841 352.787 221.81 352.654 221.9L349.677 223.904C349.541 223.997 349.504 224.182 349.593 224.32L351.458 227.19C351.549 227.324 351.728 227.364 351.868 227.281L355.014 225.329C355.101 225.287 355.164 225.206 355.18 225.11C355.197 225.014 355.166 224.916 355.098 224.847Z" fill="black"/>
<path d="M350.509 228.022L348.475 225.121C348.38 224.99 348.198 224.959 348.065 225.049L345.088 227.053C345.021 227.097 344.975 227.165 344.959 227.244C344.943 227.322 344.959 227.403 345.004 227.469L346.869 230.339C346.96 230.473 347.139 230.513 347.279 230.43L350.425 228.478C350.501 228.433 350.555 228.357 350.571 228.269C350.587 228.182 350.565 228.092 350.509 228.022Z" fill="black"/>
<path d="M346.063 231.08L344.029 228.179C343.985 228.113 343.917 228.068 343.84 228.054C343.763 228.039 343.683 228.056 343.619 228.1L340.642 230.111C340.576 230.153 340.53 230.221 340.514 230.298C340.498 230.375 340.514 230.455 340.558 230.521L342.423 233.39C342.512 233.527 342.694 233.568 342.833 233.481L345.979 231.529C346.055 231.486 346.108 231.411 346.125 231.324C346.141 231.238 346.118 231.149 346.063 231.08Z" fill="black"/>
<path d="M341.617 234.19L339.602 231.282C339.507 231.151 339.326 231.12 339.193 231.21L336.216 233.214C336.149 233.258 336.102 233.327 336.087 233.405C336.071 233.483 336.087 233.564 336.131 233.631L337.997 236.5C338.087 236.634 338.267 236.674 338.406 236.591L341.552 234.639C341.625 234.592 341.675 234.516 341.687 234.429C341.7 234.343 341.674 234.256 341.617 234.19Z" fill="black"/>
<path d="M337.171 237.267L335.137 234.366C335.093 234.301 335.025 234.256 334.948 234.241C334.871 234.226 334.791 234.243 334.727 234.288L331.75 236.285C331.684 236.328 331.638 236.395 331.622 236.472C331.606 236.549 331.622 236.63 331.666 236.695L333.531 239.564C333.62 239.701 333.802 239.742 333.941 239.655L337.087 237.703C337.159 237.66 337.209 237.587 337.225 237.504C337.242 237.421 337.222 237.335 337.171 237.267Z" fill="black"/>
<path d="M383.523 198.453L381.885 196.11C381.681 195.828 381.291 195.756 381.001 195.948L378.602 197.587C378.317 197.785 378.237 198.171 378.42 198.466L379.922 200.775C380.117 201.063 380.503 201.146 380.799 200.964L383.36 199.357C383.654 199.152 383.727 198.747 383.523 198.453Z" fill="black"/>
<path d="M377.12 189.194L375.482 186.839C375.279 186.561 374.894 186.49 374.605 186.677L372.18 188.31C371.895 188.507 371.815 188.893 371.998 189.188L373.5 191.498C373.693 191.787 374.079 191.873 374.377 191.693L376.938 190.086C377.231 189.888 377.311 189.492 377.12 189.194Z" fill="black"/>
<path d="M379.161 201.471L377.523 199.136C377.32 198.857 376.935 198.786 376.646 198.973L374.221 200.606C373.938 200.805 373.861 201.191 374.046 201.484L375.541 203.794C375.734 204.084 376.12 204.17 376.418 203.989L378.979 202.382C379.125 202.287 379.227 202.136 379.261 201.965C379.295 201.794 379.259 201.616 379.161 201.471Z" fill="black"/>
<path d="M374.585 204.64L372.947 202.304C372.743 202.022 372.354 201.95 372.063 202.141L369.645 203.755C369.356 203.953 369.276 204.344 369.463 204.64L370.965 206.949C371.16 207.237 371.546 207.32 371.842 207.138L374.403 205.531C374.696 205.333 374.776 204.937 374.585 204.64Z" fill="black"/>
<path d="M369.951 207.854L368.319 205.512C368.115 205.229 367.726 205.158 367.435 205.349L365.011 207.008C364.728 207.207 364.651 207.593 364.835 207.886L366.337 210.196C366.532 210.483 366.918 210.566 367.214 210.385L369.769 208.778C369.918 208.682 370.023 208.529 370.057 208.355C370.091 208.18 370.053 207.999 369.951 207.854Z" fill="black"/>
<path d="M372.863 192.363L371.225 190.027C371.021 189.749 370.636 189.677 370.347 189.865L367.923 191.498C367.638 191.695 367.558 192.081 367.741 192.376L369.242 194.686C369.435 194.975 369.822 195.061 370.12 194.881L372.681 193.274C372.827 193.178 372.928 193.028 372.963 192.857C372.997 192.685 372.961 192.507 372.863 192.363Z" fill="black"/>
<path d="M368.287 195.538L366.649 193.196C366.445 192.913 366.055 192.842 365.765 193.033L363.347 194.647C363.062 194.844 362.982 195.23 363.165 195.525L364.666 197.834C364.861 198.122 365.248 198.205 365.544 198.023L368.105 196.416C368.389 196.219 368.469 195.832 368.287 195.538Z" fill="black"/>
<path d="M363.652 198.745L362.014 196.41C361.813 196.129 361.428 196.055 361.137 196.24L358.712 197.9C358.429 198.099 358.352 198.485 358.537 198.778L360.038 201.087C360.231 201.377 360.618 201.463 360.916 201.283L363.47 199.669C363.62 199.574 363.724 199.421 363.759 199.246C363.793 199.072 363.754 198.891 363.652 198.745Z" fill="black"/>
<path d="M365.323 211.061L363.685 208.726C363.483 208.445 363.098 208.371 362.807 208.556L360.402 210.196C360.119 210.395 360.042 210.781 360.227 211.074L361.702 213.384C361.895 213.67 362.277 213.755 362.573 213.579L365.134 211.966C365.279 211.871 365.381 211.722 365.416 211.553C365.452 211.383 365.418 211.206 365.323 211.061Z" fill="black"/>
<path d="M360.695 214.269L359.057 211.933C358.853 211.651 358.463 211.579 358.173 211.77L355.755 213.403C355.47 213.601 355.39 213.987 355.573 214.282L357.074 216.591C357.267 216.881 357.654 216.967 357.952 216.787L360.513 215.18C360.659 215.084 360.76 214.934 360.795 214.762C360.829 214.591 360.793 214.413 360.695 214.269Z" fill="black"/>
<path d="M356.268 217.769L354.234 214.867C354.19 214.802 354.122 214.757 354.045 214.742C353.968 214.728 353.888 214.745 353.824 214.789L350.847 216.8C350.781 216.842 350.735 216.91 350.719 216.987C350.703 217.064 350.719 217.144 350.763 217.209L352.628 220.079C352.669 220.146 352.736 220.194 352.814 220.211C352.891 220.228 352.971 220.213 353.038 220.17L356.184 218.218C356.26 218.174 356.313 218.099 356.33 218.013C356.346 217.927 356.323 217.837 356.268 217.769Z" fill="black"/>
<path d="M352.167 220.612L350.132 217.704C350.037 217.573 349.856 217.542 349.723 217.632L346.752 219.636C346.616 219.729 346.579 219.914 346.668 220.053L348.533 222.922C348.624 223.056 348.803 223.096 348.943 223.013L352.089 221.061C352.168 221.02 352.223 220.944 352.239 220.856C352.254 220.768 352.227 220.678 352.167 220.612Z" fill="black"/>
<path d="M347.578 223.787L345.543 220.885C345.448 220.755 345.267 220.723 345.134 220.814L342.157 222.818C342.09 222.86 342.044 222.928 342.028 223.005C342.012 223.082 342.028 223.162 342.072 223.227L343.938 226.103C344.028 226.237 344.208 226.277 344.347 226.194L347.493 224.242C347.57 224.198 347.623 224.122 347.64 224.034C347.656 223.947 347.633 223.856 347.578 223.787Z" fill="black"/>
<path d="M343.132 226.871L341.097 223.969C341.053 223.904 340.986 223.859 340.909 223.844C340.832 223.83 340.752 223.846 340.688 223.891L337.711 225.875C337.644 225.918 337.598 225.985 337.582 226.063C337.566 226.14 337.582 226.22 337.626 226.285L339.492 229.154C339.58 229.292 339.763 229.332 339.901 229.246L343.047 227.294C343.115 227.25 343.163 227.18 343.179 227.1C343.195 227.021 343.178 226.938 343.132 226.871Z" fill="black"/>
<path d="M371.537 200.235L369.899 197.9C369.695 197.621 369.31 197.55 369.021 197.737L366.597 199.376C366.314 199.576 366.237 199.962 366.421 200.255L367.923 202.564C368.117 202.848 368.499 202.931 368.794 202.753L371.355 201.146C371.501 201.051 371.602 200.9 371.637 200.729C371.671 200.558 371.635 200.38 371.537 200.235Z" fill="black"/>
<path d="M366.902 203.449L365.264 201.107C365.06 200.825 364.671 200.753 364.38 200.944L361.962 202.584C361.677 202.781 361.597 203.168 361.78 203.462L363.282 205.772C363.475 206.061 363.861 206.147 364.159 205.967L366.72 204.353C366.864 204.258 366.965 204.109 366.999 203.939C367.033 203.769 366.998 203.593 366.902 203.449Z" fill="black"/>
<path d="M362.281 206.657L360.643 204.321C360.439 204.039 360.049 203.967 359.759 204.158L357.334 205.791C357.051 205.991 356.974 206.377 357.159 206.67L358.66 208.979C358.853 209.269 359.24 209.355 359.538 209.174L362.092 207.561C362.237 207.467 362.339 207.318 362.374 207.148C362.41 206.978 362.376 206.801 362.281 206.657Z" fill="black"/>
<path d="M357.646 209.864L356.008 207.528C355.805 207.25 355.42 207.179 355.131 207.366L352.706 208.999C352.423 209.198 352.346 209.584 352.531 209.877L354.032 212.213C354.225 212.499 354.607 212.584 354.903 212.408L357.464 210.801C357.618 210.705 357.725 210.55 357.759 210.372C357.794 210.194 357.753 210.01 357.646 209.864Z" fill="black"/>
<path d="M353.252 213.364L351.218 210.463C351.174 210.397 351.106 210.352 351.029 210.338C350.952 210.323 350.872 210.34 350.808 210.385L347.831 212.395C347.696 212.486 347.659 212.668 347.747 212.805L349.612 215.68C349.655 215.747 349.722 215.793 349.799 215.809C349.876 215.825 349.956 215.809 350.022 215.765L353.168 213.813C353.244 213.77 353.297 213.695 353.314 213.608C353.33 213.522 353.307 213.433 353.252 213.364Z" fill="black"/>
<path d="M349.125 216.207L347.09 213.299C346.993 213.168 346.81 213.136 346.674 213.228L343.704 215.232C343.568 215.325 343.531 215.509 343.619 215.648L345.485 218.517C345.573 218.654 345.756 218.695 345.894 218.608L349.04 216.656C349.116 216.613 349.17 216.538 349.186 216.452C349.203 216.365 349.18 216.276 349.125 216.207Z" fill="black"/>
<path d="M344.536 219.369L342.501 216.461C342.404 216.33 342.221 216.298 342.085 216.39L339.108 218.393C338.975 218.489 338.938 218.67 339.024 218.81L340.896 221.679C340.984 221.816 341.167 221.857 341.305 221.77L344.445 219.818C344.524 219.778 344.58 219.703 344.598 219.616C344.616 219.528 344.593 219.438 344.536 219.369Z" fill="black"/>
<path d="M340.09 222.466L338.055 219.565C338.01 219.499 337.941 219.454 337.863 219.439C337.785 219.425 337.704 219.442 337.639 219.487L334.662 221.497C334.529 221.59 334.495 221.772 334.584 221.907L336.45 224.776C336.49 224.845 336.557 224.894 336.634 224.911C336.712 224.928 336.794 224.912 336.859 224.867L339.999 222.915C340.078 222.875 340.134 222.8 340.152 222.713C340.17 222.625 340.147 222.535 340.09 222.466Z" fill="black"/>
<path d="M338.686 229.948L336.651 227.047C336.556 226.916 336.375 226.884 336.242 226.975L333.265 228.979C333.198 229.021 333.152 229.089 333.136 229.166C333.12 229.243 333.136 229.323 333.18 229.389L335.046 232.264C335.136 232.399 335.316 232.438 335.455 232.355L338.601 230.404C338.678 230.359 338.731 230.283 338.748 230.195C338.764 230.108 338.741 230.018 338.686 229.948Z" fill="black"/>
<path d="M334.24 233.032L332.205 230.13C332.161 230.065 332.094 230.02 332.017 230.006C331.94 229.991 331.86 230.008 331.796 230.052L328.819 232.063C328.752 232.105 328.706 232.173 328.69 232.25C328.674 232.327 328.69 232.407 328.734 232.473L330.6 235.342C330.688 235.479 330.871 235.519 331.009 235.433L334.155 233.481C334.231 233.438 334.285 233.363 334.301 233.276C334.318 233.19 334.295 233.1 334.24 233.032Z" fill="black"/>
<path d="M341.221 214.594L339.271 211.861C339.143 211.685 338.898 211.642 338.718 211.764L335.91 213.657C335.822 213.715 335.76 213.807 335.74 213.911C335.719 214.014 335.74 214.122 335.8 214.21L337.555 216.91C337.609 217 337.699 217.064 337.801 217.088C337.904 217.111 338.012 217.091 338.101 217.034L341.071 215.167C341.17 215.113 341.242 215.022 341.271 214.913C341.299 214.804 341.281 214.689 341.221 214.594Z" fill="black"/>
<path d="M336.775 217.678L334.857 214.945C334.798 214.858 334.706 214.798 334.602 214.778C334.499 214.759 334.391 214.781 334.305 214.841L331.497 216.767C331.409 216.824 331.347 216.914 331.327 217.017C331.306 217.12 331.327 217.227 331.386 217.313L333.141 220.02C333.26 220.202 333.501 220.256 333.687 220.144L336.658 218.276C336.759 218.218 336.83 218.119 336.853 218.004C336.875 217.889 336.847 217.77 336.775 217.678Z" fill="black"/>
<path d="M332.329 220.762L330.411 218.023C330.283 217.846 330.039 217.803 329.859 217.925L327.051 219.818C326.962 219.877 326.901 219.968 326.88 220.072C326.859 220.176 326.881 220.283 326.94 220.371L328.695 223.071C328.75 223.161 328.839 223.225 328.942 223.249C329.045 223.272 329.153 223.253 329.241 223.195L332.212 221.328C332.305 221.27 332.37 221.177 332.392 221.07C332.414 220.963 332.391 220.851 332.329 220.762Z" fill="black"/>
<path d="M327.941 223.924L325.907 221.015C325.812 220.885 325.63 220.853 325.497 220.944L322.52 222.948C322.384 223.041 322.347 223.225 322.436 223.364L324.301 226.233C324.392 226.367 324.571 226.407 324.711 226.324L327.857 224.373C327.937 224.333 327.994 224.257 328.01 224.169C328.027 224.081 328.001 223.99 327.941 223.924Z" fill="black"/>
<path d="M380.552 193.898L378.791 191.393C378.585 191.113 378.196 191.045 377.907 191.237L371.03 196.058C370.753 196.259 370.679 196.64 370.861 196.93L372.518 199.493C372.614 199.637 372.764 199.736 372.933 199.769C373.103 199.802 373.278 199.766 373.422 199.669L380.403 194.783C380.68 194.575 380.746 194.186 380.552 193.898Z" fill="black"/>
<path d="M335.631 225.453L333.473 222.401C333.428 222.335 333.358 222.29 333.28 222.277C333.201 222.263 333.121 222.282 333.057 222.33L325.634 227.534C325.502 227.625 325.467 227.805 325.556 227.938L327.584 231.08C327.627 231.149 327.697 231.197 327.777 231.212C327.856 231.228 327.939 231.211 328.006 231.165L335.553 225.875C335.69 225.78 335.725 225.591 335.631 225.453Z" fill="black"/>
<path d="M359.245 202.115L357.256 199.201C357.163 199.068 356.982 199.033 356.847 199.123L340.363 210.261C340.228 210.352 340.19 210.534 340.278 210.671L342.313 213.794C342.356 213.862 342.426 213.91 342.506 213.926C342.586 213.942 342.668 213.925 342.735 213.878L359.167 202.532C359.233 202.487 359.278 202.418 359.292 202.34C359.307 202.262 359.29 202.181 359.245 202.115Z" fill="black"/>
</g>
<path d="M386.897 202.5L385.36 200.258C385.169 199.988 384.804 199.919 384.531 200.102L382.263 201.672C381.995 201.861 381.92 202.23 382.092 202.512L383.501 204.723C383.682 205 384.045 205.082 384.324 204.91L386.726 203.365C386.862 203.274 386.956 203.131 386.988 202.969C387.02 202.806 386.987 202.638 386.897 202.5Z" fill="#464A5F"/>
<path d="M381.894 205.495L380.359 203.256C380.168 202.989 379.807 202.92 379.536 203.1L377.263 204.666C376.995 204.855 376.92 205.225 377.092 205.508L378.5 207.722C378.681 208 379.043 208.083 379.322 207.91L381.724 206.369C381.861 206.277 381.956 206.133 381.988 205.969C382.02 205.804 381.986 205.634 381.894 205.495Z" fill="#464A5F"/>
<path d="M377.894 208.496L376.359 206.258C376.168 205.988 375.802 205.919 375.53 206.103L373.263 207.673C372.995 207.862 372.92 208.232 373.092 208.515L374.5 210.727C374.683 211.002 375.045 211.082 375.322 210.908L377.724 209.368C377.861 209.277 377.956 209.133 377.988 208.969C378.02 208.805 377.986 208.634 377.894 208.496Z" fill="#464A5F"/>
<path d="M372.881 212.483L371.351 210.254C371.161 209.989 370.802 209.921 370.531 210.099L368.267 211.659C368.132 211.752 368.04 211.896 368.01 212.059C367.981 212.222 368.016 212.39 368.109 212.526L369.511 214.724C369.692 215 370.053 215.082 370.331 214.91L372.717 213.375C372.86 213.283 372.958 213.134 372.99 212.965C373.021 212.796 372.981 212.621 372.881 212.483Z" fill="#464A5F"/>
<path d="M368.897 214.495L367.359 212.256C367.168 211.989 366.807 211.92 366.535 212.1L364.259 213.666C363.993 213.857 363.921 214.227 364.094 214.508L365.498 216.722C365.679 217 366.042 217.083 366.322 216.91L368.726 215.362C368.862 215.271 368.956 215.128 368.988 214.965C369.02 214.802 368.987 214.633 368.897 214.495Z" fill="#464A5F"/>
<path d="M364.941 218.767L363.131 216.119C363.092 216.059 363.032 216.018 362.964 216.005C362.895 215.991 362.824 216.007 362.767 216.047L360.12 217.882C360.061 217.921 360.02 217.983 360.005 218.053C359.991 218.124 360.005 218.197 360.044 218.256L361.703 220.875C361.782 221 361.944 221.037 362.068 220.958L364.865 219.177C364.933 219.137 364.981 219.069 364.995 218.99C365.01 218.911 364.99 218.829 364.941 218.767Z" fill="#464A5F"/>
<path d="M358.943 221.765L357.133 219.119C357.093 219.059 357.032 219.018 356.962 219.005C356.893 218.991 356.821 219.007 356.763 219.048L354.12 220.881C354.061 220.92 354.02 220.981 354.005 221.052C353.991 221.122 354.005 221.195 354.044 221.255L355.704 223.877C355.742 223.938 355.802 223.98 355.871 223.994C355.939 224.009 356.011 223.995 356.069 223.954L358.868 222.175C358.935 222.134 358.981 222.065 358.995 221.987C359.01 221.909 358.991 221.828 358.943 221.765Z" fill="#464A5F"/>
<path d="M355.952 224.781L354.138 222.113C354.053 221.993 353.892 221.964 353.773 222.047L351.118 223.862C350.997 223.948 350.964 224.117 351.043 224.244L352.706 226.877C352.787 227 352.948 227.037 353.072 226.96L355.877 225.169C355.938 225.129 355.981 225.065 355.995 224.992C356.009 224.919 355.994 224.843 355.952 224.781Z" fill="#464A5F"/>
<path d="M350.927 227.744L349.123 225.112C349.039 224.993 348.878 224.964 348.76 225.047L346.12 226.877C346.061 226.917 346.019 226.98 346.005 227.051C345.991 227.122 346.005 227.197 346.045 227.257L347.699 229.877C347.779 230 347.939 230.036 348.062 229.96L350.852 228.178C350.928 228.14 350.981 228.066 350.996 227.981C351.011 227.895 350.985 227.807 350.927 227.744Z" fill="#464A5F"/>
<path d="M345.941 230.766L344.131 228.119C344.092 228.059 344.032 228.018 343.964 228.005C343.895 227.991 343.824 228.007 343.767 228.047L341.12 229.881C341.061 229.92 341.02 229.982 341.005 230.052C340.991 230.123 341.005 230.196 341.044 230.255L342.703 232.873C342.74 232.934 342.8 232.978 342.868 232.994C342.937 233.009 343.009 232.996 343.068 232.956L345.865 231.175C345.933 231.136 345.981 231.067 345.995 230.989C346.01 230.91 345.99 230.828 345.941 230.766Z" fill="#464A5F"/>
<path d="M340.94 233.768L339.131 231.112C339.046 230.993 338.885 230.964 338.766 231.047L336.118 232.877C335.997 232.962 335.964 233.13 336.043 233.257L337.702 235.877C337.783 236 337.943 236.036 338.067 235.96L340.865 234.178C340.933 234.138 340.981 234.07 340.995 233.991C341.01 233.912 340.99 233.831 340.94 233.768Z" fill="#464A5F"/>
<path d="M336.941 237.766L335.131 235.119C335.092 235.059 335.032 235.018 334.964 235.005C334.895 234.991 334.824 235.007 334.767 235.047L332.12 236.881C332.061 236.92 332.02 236.982 332.005 237.052C331.991 237.123 332.005 237.196 332.044 237.255L333.703 239.873C333.74 239.934 333.8 239.978 333.868 239.994C333.937 240.009 334.009 239.996 334.068 239.956L336.865 238.175C336.933 238.136 336.981 238.067 336.995 237.989C337.01 237.91 336.99 237.828 336.941 237.766Z" fill="#464A5F"/>
<path d="M383.897 197.498L382.359 195.255C382.168 194.989 381.807 194.921 381.535 195.1L379.259 196.67C378.993 196.861 378.921 197.23 379.094 197.511L380.498 199.723C380.679 200 381.042 200.083 381.322 199.91L383.726 198.365C383.862 198.273 383.956 198.13 383.988 197.968C384.02 197.805 383.987 197.636 383.897 197.498Z" fill="#464A5F"/>
<path d="M377.894 188.497L376.357 186.256C376.166 185.989 375.805 185.92 375.534 186.1L373.259 187.667C372.993 187.858 372.921 188.228 373.094 188.509L374.503 190.725C374.684 190.999 375.042 191.081 375.32 190.912L377.723 189.371C377.861 189.279 377.956 189.135 377.988 188.97C378.02 188.806 377.986 188.635 377.894 188.497Z" fill="#464A5F"/>
<path d="M379.9 201.509L378.361 199.256C378.17 198.989 377.808 198.92 377.537 199.1L375.259 200.667C374.993 200.858 374.921 201.228 375.094 201.509L376.505 203.725C376.686 203.999 377.045 204.081 377.323 203.912L379.729 202.371C380.007 202.18 380.084 201.796 379.9 201.509Z" fill="#464A5F"/>
<path d="M374.886 204.494L373.369 202.256C373.178 201.989 372.816 201.92 372.543 202.1L370.262 203.665C369.992 203.857 369.919 204.231 370.097 204.513L371.504 206.727C371.687 207.002 372.051 207.082 372.329 206.908L374.739 205.367C374.873 205.272 374.964 205.126 374.991 204.962C375.019 204.798 374.981 204.63 374.886 204.494Z" fill="#464A5F"/>
<path d="M370.897 207.5L369.36 205.258C369.169 204.988 368.804 204.919 368.531 205.102L366.263 206.672C365.995 206.861 365.92 207.23 366.092 207.512L367.501 209.723C367.682 210 368.045 210.082 368.324 209.91L370.726 208.365C370.862 208.274 370.956 208.131 370.988 207.969C371.02 207.806 370.987 207.638 370.897 207.5Z" fill="#464A5F"/>
<path d="M372.9 191.509L371.361 189.256C371.17 188.989 370.808 188.92 370.537 189.1L368.259 190.667C367.993 190.858 367.921 191.228 368.094 191.509L369.505 193.725C369.686 193.999 370.045 194.081 370.323 193.912L372.729 192.371C373.007 192.18 373.084 191.796 372.9 191.509Z" fill="#464A5F"/>
<path d="M368.897 195.498L367.36 193.255C367.17 192.989 366.809 192.921 366.537 193.1L364.263 194.67C363.995 194.859 363.92 195.229 364.092 195.511L365.501 197.723C365.682 198 366.045 198.083 366.324 197.91L368.726 196.365C368.862 196.273 368.956 196.13 368.988 195.968C369.02 195.805 368.987 195.636 368.897 195.498Z" fill="#464A5F"/>
<path d="M364.896 198.494L363.36 196.258C363.169 195.988 362.803 195.919 362.531 196.102L360.263 197.665C359.995 197.854 359.92 198.224 360.092 198.506L361.5 200.723C361.681 201 362.044 201.082 362.323 200.91L364.719 199.365C364.857 199.275 364.954 199.132 364.987 198.968C365.021 198.803 364.988 198.633 364.896 198.494Z" fill="#464A5F"/>
<path d="M364.902 210.503L363.363 208.257C363.172 207.989 362.81 207.92 362.538 208.1L360.259 209.658C359.993 209.85 359.921 210.221 360.094 210.503L361.505 212.724C361.687 212.999 362.046 213.082 362.324 212.912L364.731 211.36C365.006 211.17 365.082 210.789 364.902 210.503Z" fill="#464A5F"/>
<path d="M360.88 213.48L359.349 211.254C359.159 210.989 358.799 210.921 358.528 211.099L356.262 212.686C355.995 212.874 355.921 213.243 356.092 213.523L357.495 215.724C357.676 216 358.037 216.082 358.316 215.91L360.71 214.379C360.855 214.288 360.957 214.139 360.989 213.968C361.021 213.797 360.982 213.62 360.88 213.48Z" fill="#464A5F"/>
<path d="M356.935 217.766L355.119 215.119C355.08 215.059 355.02 215.018 354.951 215.005C354.882 214.991 354.811 215.007 354.754 215.047L352.12 216.881C352.061 216.92 352.02 216.982 352.005 217.052C351.991 217.123 352.005 217.196 352.045 217.255L353.71 219.873C353.747 219.934 353.806 219.978 353.875 219.994C353.944 220.009 354.016 219.996 354.075 219.956L356.883 218.175C356.946 218.131 356.988 218.06 356.998 217.983C357.008 217.905 356.985 217.826 356.935 217.766Z" fill="#464A5F"/>
<path d="M351.939 220.767L350.131 218.113C350.045 217.993 349.882 217.964 349.761 218.048L347.116 219.876C346.998 219.963 346.965 220.129 347.041 220.257L348.704 222.875C348.783 223 348.945 223.037 349.068 222.958L351.858 221.177C351.929 221.14 351.979 221.072 351.995 220.992C352.011 220.912 351.99 220.83 351.939 220.767Z" fill="#464A5F"/>
<path d="M347.934 222.768L346.126 220.112C346.042 219.993 345.881 219.964 345.763 220.047L343.118 221.877C342.997 221.962 342.964 222.13 343.043 222.257L344.7 224.877C344.781 225 344.94 225.036 345.064 224.96L347.859 223.178C347.93 223.142 347.981 223.073 347.996 222.992C348.01 222.912 347.988 222.829 347.934 222.768Z" fill="#464A5F"/>
<path d="M342.931 226.767L341.136 224.119C341.097 224.059 341.036 224.018 340.968 224.005C340.899 223.991 340.828 224.007 340.771 224.047L338.118 225.882C337.997 225.965 337.964 226.131 338.042 226.256L339.705 228.875C339.784 229 339.946 229.037 340.07 228.958L342.873 227.177C342.941 227.136 342.986 227.066 342.997 226.986C343.009 226.907 342.984 226.826 342.931 226.767Z" fill="#464A5F"/>
<path d="M371.897 199.502L370.365 197.258C370.174 196.988 369.808 196.919 369.535 197.103L367.259 198.673C366.993 198.864 366.921 199.234 367.094 199.515L368.504 201.727C368.687 202.002 369.05 202.082 369.328 201.908L371.726 200.368C371.862 200.277 371.956 200.134 371.988 199.972C372.02 199.809 371.987 199.64 371.897 199.502Z" fill="#464A5F"/>
<path d="M366.897 203.499L365.359 201.26C365.17 200.991 364.808 200.92 364.535 201.098L362.259 202.669C361.993 202.861 361.921 203.231 362.094 203.511L363.504 205.725C363.685 205.999 364.043 206.081 364.322 205.912L366.726 204.366C366.862 204.274 366.956 204.131 366.988 203.969C367.02 203.806 366.987 203.637 366.897 203.499Z" fill="#464A5F"/>
<path d="M362.884 206.494L361.323 204.259C361.132 203.988 360.765 203.919 360.491 204.103L358.264 205.663C357.995 205.853 357.92 206.223 358.092 206.506L359.506 208.722C359.688 209 360.052 209.083 360.332 208.91L362.743 207.368C362.876 207.271 362.965 207.125 362.992 206.96C363.018 206.796 362.979 206.628 362.884 206.494Z" fill="#464A5F"/>
<path d="M357.894 209.497L356.357 207.256C356.166 206.989 355.805 206.92 355.534 207.1L353.259 208.667C352.993 208.858 352.921 209.228 353.094 209.509L354.503 211.725C354.684 211.999 355.042 212.081 355.32 211.912L357.723 210.371C357.861 210.279 357.956 210.135 357.988 209.97C358.02 209.806 357.986 209.635 357.894 209.497Z" fill="#464A5F"/>
<path d="M353.942 213.765L352.134 211.119C352.094 211.059 352.032 211.018 351.963 211.005C351.894 210.991 351.822 211.007 351.764 211.048L349.117 212.881C348.997 212.964 348.964 213.13 349.042 213.255L350.701 215.877C350.739 215.938 350.8 215.98 350.87 215.995C350.939 216.009 351.011 215.994 351.07 215.954L353.861 214.174C353.93 214.136 353.979 214.068 353.995 213.989C354.01 213.91 353.991 213.828 353.942 213.765Z" fill="#464A5F"/>
<path d="M348.935 215.768L347.12 213.119C347.082 213.059 347.021 213.018 346.952 213.005C346.884 212.991 346.813 213.007 346.755 213.047L344.118 214.877C343.997 214.962 343.964 215.131 344.043 215.257L345.706 217.877C345.787 218 345.947 218.036 346.071 217.96L348.877 216.178C348.942 216.136 348.986 216.066 348.997 215.987C349.008 215.908 348.985 215.828 348.935 215.768Z" fill="#464A5F"/>
<path d="M344.94 219.767L343.131 217.113C343.044 216.993 342.881 216.964 342.76 217.048L340.118 218.876C339.997 218.962 339.964 219.13 340.043 219.257L341.702 221.875C341.781 222 341.943 222.037 342.067 221.958L344.865 220.177C344.933 220.137 344.981 220.069 344.995 219.99C345.01 219.911 344.99 219.83 344.94 219.767Z" fill="#464A5F"/>
<path d="M340.943 221.765L339.133 219.119C339.093 219.059 339.032 219.018 338.962 219.005C338.893 218.991 338.821 219.007 338.763 219.048L336.12 220.881C336.061 220.92 336.02 220.981 336.005 221.052C335.991 221.122 336.005 221.195 336.044 221.255L337.704 223.877C337.742 223.938 337.802 223.98 337.871 223.994C337.939 224.009 338.011 223.995 338.069 223.954L340.868 222.175C340.935 222.134 340.981 222.065 340.995 221.987C341.01 221.909 340.991 221.828 340.943 221.765Z" fill="#464A5F"/>
<path d="M338.939 229.768L337.132 227.113C337.045 226.993 336.883 226.964 336.762 227.048L334.118 228.877C333.997 228.963 333.964 229.131 334.043 229.257L335.7 231.877C335.78 232 335.94 232.036 336.064 231.96L338.858 230.178C338.929 230.141 338.979 230.073 338.995 229.993C339.011 229.914 338.99 229.831 338.939 229.768Z" fill="#464A5F"/>
<path d="M333.939 232.766L332.132 230.119C332.092 230.059 332.031 230.018 331.961 230.005C331.892 229.991 331.82 230.007 331.762 230.048L329.117 231.882C328.997 231.965 328.964 232.131 329.042 232.255L330.7 234.873C330.737 234.934 330.798 234.978 330.867 234.994C330.937 235.009 331.01 234.996 331.069 234.956L333.858 233.175C333.929 233.138 333.979 233.07 333.995 232.991C334.011 232.911 333.99 232.828 333.939 232.766Z" fill="#464A5F"/>
<path d="M340.94 213.689L339.209 211.155C339.094 210.991 338.873 210.951 338.711 211.064L336.159 212.816C335.995 212.931 335.951 213.158 336.059 213.328L337.643 215.833C337.753 216.003 337.974 216.051 338.142 215.941L340.817 214.213C340.904 214.163 340.967 214.078 340.99 213.979C341.013 213.88 340.995 213.775 340.94 213.689Z" fill="#464A5F"/>
<path d="M336.935 217.688L335.2 215.161C335.146 215.08 335.063 215.024 334.969 215.006C334.876 214.988 334.779 215.009 334.7 215.064L332.159 216.822C331.996 216.934 331.951 217.159 332.059 217.327L333.647 219.831C333.757 220 333.977 220.05 334.147 219.945L336.835 218.218C336.918 218.162 336.974 218.074 336.993 217.975C337.012 217.875 336.991 217.772 336.935 217.688Z" fill="#464A5F"/>
<path d="M332.942 220.689L331.185 218.154C331.073 217.991 330.854 217.951 330.693 218.064L328.158 219.816C327.995 219.931 327.951 220.158 328.059 220.328L329.64 222.833C329.749 223.003 329.97 223.051 330.137 222.941L332.813 221.213C332.901 221.164 332.965 221.08 332.989 220.98C333.014 220.881 332.996 220.775 332.942 220.689Z" fill="#464A5F"/>
<path d="M327.941 223.767L326.131 221.113C326.045 220.993 325.882 220.964 325.761 221.048L323.114 222.876C322.995 222.964 322.965 223.131 323.044 223.257L324.703 225.875C324.782 226 324.944 226.037 325.068 225.958L327.865 224.177C327.933 224.137 327.981 224.069 327.995 223.99C328.01 223.911 327.99 223.83 327.941 223.767Z" fill="#464A5F"/>
<path d="M381.895 193.888L380.143 191.276C379.936 190.985 379.543 190.913 379.251 191.113L372.271 196.128C371.992 196.337 371.917 196.733 372.1 197.035L373.78 199.701C373.877 199.85 374.028 199.953 374.199 199.988C374.37 200.022 374.547 199.984 374.692 199.884L381.731 194.802C382.012 194.59 382.084 194.189 381.895 193.888Z" fill="#464A5F"/>
<path d="M335.946 225.199L333.826 222.13C333.782 222.063 333.714 222.018 333.637 222.004C333.559 221.991 333.48 222.01 333.417 222.058L326.125 227.294C325.995 227.387 325.961 227.57 326.049 227.706L328.047 230.861C328.09 230.93 328.159 230.978 328.237 230.994C328.315 231.01 328.397 230.993 328.462 230.946L335.876 225.625C336.008 225.526 336.04 225.337 335.946 225.199Z" fill="#464A5F"/>
<path d="M359.936 202.06L357.99 199.134C357.897 198.997 357.714 198.959 357.575 199.048L341.134 210.291C341.068 210.334 341.022 210.402 341.006 210.48C340.99 210.558 341.006 210.639 341.05 210.705L343.073 213.86C343.117 213.93 343.187 213.978 343.266 213.994C343.346 214.01 343.428 213.993 343.495 213.946L359.891 202.48C360.016 202.376 360.037 202.189 359.936 202.06Z" fill="#464A5F"/>
<path opacity="0.1" d="M360.706 192.033L351.738 178.738C351.222 177.969 350.194 177.769 349.436 178.29L324.734 195.209C324.367 195.463 324.114 195.855 324.03 196.299C323.946 196.743 324.039 197.203 324.289 197.578L333.43 211.253C333.678 211.628 334.063 211.886 334.499 211.97C334.935 212.055 335.386 211.957 335.751 211.701L360.28 194.388C360.643 194.134 360.893 193.743 360.973 193.301C361.052 192.859 360.956 192.403 360.706 192.033Z" fill="black"/>
<path d="M360.701 192.031L351.728 178.735C351.209 177.97 350.184 177.77 349.425 178.287L324.742 195.221C324.372 195.473 324.116 195.864 324.031 196.309C323.946 196.754 324.039 197.216 324.289 197.59L333.409 211.253C333.658 211.628 334.043 211.886 334.479 211.97C334.915 212.055 335.367 211.957 335.732 211.701L360.289 194.387C360.65 194.13 360.897 193.738 360.974 193.296C361.052 192.854 360.953 192.399 360.701 192.031Z" fill="#939498"/>
<path d="M414.509 212.384L395.849 206L336 248.639L354.523 254.828C355.536 255.167 356.645 254.999 357.518 254.373L414.679 213.608C414.907 213.471 415.031 213.206 414.993 212.938C414.956 212.67 414.765 212.451 414.509 212.384Z" fill="#1B51E5"/>
</svg>
