<svg width="98" height="98" viewBox="0 0 98 98" fill="none" xmlns="http://www.w3.org/2000/svg">
<g clip-path="url(#clip0_90_4185)">
<path d="M98 49C98 39.6083 97.5917 31.0333 96.1625 26.1333C94.5292 20.4167 92.6917 15.1083 87.5875 10.4125C81.4625 4.9 75.95 3.0625 67.9875 1.42917C62.0667 0.204167 55.125 0 50.8375 0H46.9583C42.6708 0 35.7292 0.204167 29.8083 1.42917C21.8458 3.0625 16.3333 4.9 10.2083 10.4125C5.30833 15.1083 3.675 20.4167 1.8375 26.1333C0.408333 31.0333 0 39.6083 0 49C0 58.3917 0.408333 66.9667 1.8375 71.8667C3.47083 77.5833 5.30833 82.8917 10.4125 87.5875C16.5375 93.1 22.05 94.9375 30.0125 96.5708C36.9542 98 45.1208 98 49 98C52.8792 98.2042 61.0458 98 67.9875 96.5708C75.95 94.9375 81.4625 93.1 87.5875 87.5875C92.6917 82.8917 94.5292 77.5833 96.1625 71.8667C97.5917 66.9667 98 58.3917 98 49Z" fill="url(#paint0_linear_90_4185)"/>
<path d="M53.4917 20.0083C59.2083 20.0083 70.4375 21.8458 70.4375 28.7875C70.4375 31.6458 68.3958 34.0958 65.5375 34.0958C62.2708 34.0958 60.025 31.2375 53.4917 31.2375C43.6917 31.2375 38.5875 39.6083 38.5875 49.2042C38.5875 58.5958 43.6917 66.7625 53.4917 66.7625C60.2292 66.7625 62.8833 63.4958 66.15 63.4958C69.6208 63.4958 71.4583 66.9667 71.4583 68.8042C71.4583 76.3583 59.4125 78.1958 53.6958 78.1958C37.5667 78.1958 26.5417 65.5375 26.5417 49C26.1333 32.6667 37.1583 20.0083 53.4917 20.0083Z" fill="white"/>
</g>
<defs>
<linearGradient id="paint0_linear_90_4185" x1="49" y1="0" x2="49" y2="98.0674" gradientUnits="userSpaceOnUse">
<stop stop-color="#5E81F4"/>
<stop offset="1" stop-color="#5E81F4"/>
</linearGradient>
<clipPath id="clip0_90_4185">
<rect width="98" height="98" fill="white"/>
</clipPath>
</defs>
</svg>
