<svg width="533" height="372" viewBox="0 0 533 372" fill="none" xmlns="http://www.w3.org/2000/svg">
<path opacity="0.1" d="M518.124 331.567C506.339 341.341 489.569 345.385 473.351 347.94L470.621 348.356C453.682 350.882 436.554 352.227 419.367 353.044C410.172 353.49 400.976 353.804 391.781 354.085L384.574 354.298C375.217 354.575 365.842 354.847 356.45 355.115C347.254 355.376 338.059 355.622 328.863 355.851C317.086 356.138 305.309 356.376 293.533 356.567C284.337 356.712 275.141 356.812 265.946 356.867C254.166 356.934 242.389 356.912 230.615 356.799C221.413 356.705 212.217 356.544 203.028 356.315C191.245 356.012 179.468 355.568 167.698 354.985C159.709 354.594 151.725 354.125 143.746 353.577L140.111 353.32C105.86 350.853 70.9937 346.426 41.0208 332.434L40.2125 332.051C39.8108 331.863 39.4091 331.674 39.0074 331.476C33.5042 328.845 28.2327 325.756 23.249 322.239C14.3874 315.921 7.06958 308.208 3.20258 299.059C-2.85685 284.709 0.347095 268.578 7.26801 254.547C14.1889 240.517 24.58 227.85 33.5675 214.637C36.2003 210.766 38.6977 206.751 41.0208 202.633C55.5402 176.811 62.7418 146.93 47.5206 122.047C45.5115 118.875 43.3421 115.807 41.0208 112.855C37.3087 108.017 33.5336 103.178 30.983 97.8223C25.0349 85.359 26.3126 71.3427 28.4809 58.0278C31.3847 40.3247 36.7085 21.2572 53.3478 10.197C70.6113 -1.28902 95.1152 -0.70843 116.541 3.42343C149.853 9.80507 180.601 23.1635 211.638 35.2107C242.676 47.2579 275.19 58.2746 309.315 59.4599C316.646 59.7107 323.985 59.444 331.278 58.6616C341.001 57.6628 350.591 55.6438 359.891 52.638C373.322 48.2159 385.542 41.5633 394.602 32.3174C414.034 12.5532 450.55 11.0582 476.879 22.9941C502.002 34.3833 518.249 58.4874 517.049 82.5625C515.684 109.362 495.609 131.395 477.213 153.994C474.982 156.733 472.779 159.481 470.635 162.248C469.438 163.793 468.264 165.342 467.112 166.893C465.094 169.632 463.143 172.384 461.304 175.171C451.905 189.459 445.26 206.62 451.731 222.044C455.361 230.68 462.287 237.27 470.635 243.023C489.341 255.907 515.162 264.577 526.777 282.614C536.786 298.159 533.079 319.143 518.124 331.567Z" fill="#5E81F4"/>
<path d="M476 312.385C476 333.229 385.137 372 270.681 372C156.225 372 62 335.632 62 314.789C62 293.946 156.225 296.52 270.681 296.52C385.137 296.52 476 291.542 476 312.385Z" fill="#3F3D56"/>
<path opacity="0.1" d="M476 312.385C476 333.229 385.137 372 270.681 372C156.225 372 62 335.632 62 314.789C62 293.946 156.225 296.52 270.681 296.52C385.137 296.52 476 291.542 476 312.385Z" fill="black"/>
<path d="M269 353C383.323 353 476 336.211 476 315.5C476 294.789 383.323 278 269 278C154.677 278 62 294.789 62 315.5C62 336.211 154.677 353 269 353Z" fill="#3F3D56"/>
<path d="M347 187V287.515L363.858 314.916L365.141 317H431.656L433 187H347Z" fill="#2F2E41"/>
<path opacity="0.1" d="M347 187V287.581L363.959 315L365 187H347Z" fill="black"/>
<path d="M187 184V284.515L170.143 311.916L168.859 314H102.344L101 184H187Z" fill="#2F2E41"/>
<path opacity="0.1" d="M187 184V284.581L170.041 312L169 184H187Z" fill="black"/>
<path d="M453 182V188H92V179.333L125.55 162H423.476L453 182Z" fill="#2F2E41"/>
<path opacity="0.1" d="M453 181.769V188H92V179L453 181.769Z" fill="black"/>
<path opacity="0.1" d="M143.667 212H127.667L121 208H151L143.667 212Z" fill="black"/>
<path opacity="0.1" d="M143.667 231H127.667L121 227H151L143.667 231Z" fill="black"/>
<path opacity="0.1" d="M143.667 259H127.667L121 255H151L143.667 259Z" fill="black"/>
<path opacity="0.1" d="M143.667 286H127.667L121 282H151L143.667 286Z" fill="black"/>
<path opacity="0.1" d="M391.333 214H407.333L414 210H384L391.333 214Z" fill="black"/>
<path opacity="0.1" d="M391.333 234H407.333L414 230H384L391.333 234Z" fill="black"/>
<path opacity="0.1" d="M391.333 261H407.333L414 257H384L391.333 261Z" fill="black"/>
<path opacity="0.1" d="M391.333 289H407.333L414 285H384L391.333 289Z" fill="black"/>
<path d="M318.236 144.851L316.007 158.97C316.007 158.97 305.034 164.754 312.749 164.924C320.465 165.095 356.813 164.924 356.813 164.924C356.813 164.924 363.842 164.924 352.698 158.8L350.469 144L318.236 144.851Z" fill="#3F3D56"/>
<path opacity="0.1" d="M311.195 164.966C312.694 163.753 314.304 162.685 316.005 161.777L318.234 147.525L350.468 147.556L352.697 161.606C354.529 162.552 356.255 163.69 357.848 165C359.28 164.673 360.844 163.457 352.697 158.939L350.468 144L318.234 144.859L316.005 159.111C316.005 159.111 306.784 164.017 311.195 164.966Z" fill="black"/>
<rect x="260" y="45" width="146" height="102" rx="10.6948" fill="#3F3D56"/>
<rect x="265" y="51" width="137" height="76" fill="#E1E8F6"/>
<path d="M333 49C333.552 49 334 48.5523 334 48C334 47.4477 333.552 47 333 47C332.448 47 332 47.4477 332 48C332 48.5523 332.448 49 333 49Z" fill="#F2F2F2"/>
<path d="M406 133V141.884C406 143.241 405.459 144.542 404.497 145.502C403.534 146.461 402.228 147 400.867 147H265.133C263.772 147 262.466 146.461 261.503 145.502C260.541 144.542 260 143.241 260 141.884V133L406 133Z" fill="#3F3D56"/>
<path d="M333 143C334.657 143 336 141.657 336 140C336 138.343 334.657 137 333 137C331.343 137 330 138.343 330 140C330 141.657 331.343 143 333 143Z" fill="#F2F2F2"/>
<path d="M328 175.261V177H236V175.609L236.127 175.261L238.394 169H326.119L328 175.261Z" fill="#3F3D56"/>
<path d="M363.971 172.848C363.803 173.56 363.167 174.311 361.729 175.02C356.571 177.568 346.082 174.341 346.082 174.341C346.082 174.341 338 172.982 338 169.416C338.227 169.262 338.464 169.123 338.708 169C340.877 167.866 348.068 165.07 360.818 169.118C361.758 169.409 362.597 169.952 363.242 170.687C363.822 171.25 364.093 172.054 363.971 172.848Z" fill="#3F3D56"/>
<path opacity="0.1" d="M363.971 172.193C357.48 174.723 351.694 174.912 345.757 170.716C342.762 168.601 340.042 168.078 338 168.117C340.23 166.917 347.622 163.956 360.729 168.243C361.695 168.551 362.558 169.126 363.221 169.904C363.817 170.5 364.096 171.352 363.971 172.193Z" fill="black"/>
<path d="M357 171C358.105 171 359 170.776 359 170.5C359 170.224 358.105 170 357 170C355.895 170 355 170.224 355 170.5C355 170.776 355.895 171 357 171Z" fill="#F2F2F2"/>
<path opacity="0.1" d="M328 174V176H236V174.4L236.127 174H328Z" fill="black"/>
<path d="M251.5 69C261.717 69 270 60.7173 270 50.5C270 40.2827 261.717 32 251.5 32C241.283 32 233 40.2827 233 50.5C233 60.7173 241.283 69 251.5 69Z" fill="#FFB9B9"/>
<path d="M237 59.3846V88H267C267 88 263.129 64.1538 265.064 57L237 59.3846Z" fill="#FFB9B9"/>
<path d="M297.407 98.0047C297.407 98.0047 269.109 83.9943 269.109 83.028C269.109 82.0618 266.231 75.7813 264.312 75.7813C262.394 75.7813 246.086 70.4669 236.973 78.1968L236.014 84.4774L201 107.667L210.593 142.935C210.593 142.935 216.828 149.699 214.91 154.53C212.991 159.361 216.348 184 216.348 184L291.652 181.584V148.732C291.652 148.732 294.05 141.002 295.489 138.587C296.928 136.171 295.489 128.924 295.489 128.924L307 114.431C307 114.431 305.561 100.903 297.407 98.0047Z" fill="#D0CDE1"/>
<path opacity="0.1" d="M201.174 119.79L203.377 108C203.377 108 190.649 162.378 192.118 168.634C193.587 174.89 204.356 184.515 205.825 184.996C207.293 185.477 221 143.611 221 143.611L201.174 119.79Z" fill="black"/>
<path d="M208.699 107L200.377 108.436C200.377 108.436 187.649 162.506 189.118 168.727C190.587 174.947 201.356 184.517 202.825 184.996C204.293 185.474 218 143.845 218 143.845L208.699 107Z" fill="#D0CDE1"/>
<path opacity="0.1" d="M299.865 122.947L303.842 115C303.842 115 309.456 169.422 305.713 174.72C301.971 180.018 287.166 182 287.166 182L287 142.452L299.865 122.947Z" fill="black"/>
<path d="M300.76 109L306.842 115.239C306.842 115.239 312.456 169.467 308.713 174.746C304.971 180.025 290.166 182 290.166 182L290 142.593L300.76 109Z" fill="#D0CDE1"/>
<path d="M206.837 191.386C206.837 191.386 192.855 186.092 190.444 196.198C188.033 206.304 196.23 251.539 196.23 251.539C196.23 251.539 201.533 285.706 204.908 286.669C208.283 287.631 223.23 288.113 225.641 283.782C228.051 279.451 218.408 235.177 218.408 235.177L274.338 234.215C274.338 234.215 270.963 272.713 269.034 276.082C267.105 279.451 267.105 291 269.034 291C270.963 291 292.177 290.038 293.624 287.15C295.07 284.263 303.267 219.297 303.267 219.297C303.267 219.297 310.017 196.679 302.302 198.123C294.588 199.567 206.837 191.386 206.837 191.386Z" fill="#3F3D56"/>
<path d="M290.073 285.517C290.073 285.517 294.963 282.104 297.408 285.517C299.853 288.929 300.832 292.829 290.073 298.679C279.314 304.529 271 303.066 271 302.091V287.954L290.073 285.517Z" fill="#2F2E41"/>
<path d="M205.927 284.517C205.927 284.517 201.037 281.104 198.592 284.517C196.147 287.929 195.168 291.829 205.927 297.679C216.686 303.529 225 302.066 225 301.091V286.954L205.927 284.517Z" fill="#2F2E41"/>
<path d="M251.7 27.0093C249.887 26.9465 248.076 27.2036 246.353 27.7688C245.016 28.3042 243.74 28.9773 242.544 29.7773L234.507 34.7583C233.111 35.3601 232.216 36.7393 232.238 38.2543L231.234 45.7502C230.98 47.6419 230.747 49.6649 231.596 51.3752C232.306 52.8027 233.658 53.7795 234.77 54.9236C236.55 56.7622 237.748 59.0818 238.215 61.5937C238.79 64.7234 238.421 68.4922 240.907 70.4895C242.252 71.5709 244.086 71.7754 245.812 71.876C250.531 72.1506 255.265 71.9689 259.949 71.3337C260.693 71.2781 261.419 71.0754 262.085 70.7372C262.93 70.2392 263.461 69.3601 263.959 68.5165C265.753 65.4712 267.603 62.2317 267.584 58.7C267.574 56.9528 267.125 55.0763 267.967 53.5437C268.412 52.8923 268.895 52.2674 269.413 51.6723C270.455 50.2128 270.658 48.3375 270.828 46.554C271.37 40.8575 270.803 36.5225 266.591 32.5097C262.658 28.7639 257.063 27.0437 251.7 27.0093Z" fill="#2F2E41"/>
<path d="M206.457 248L190 330H198.228L214 249.345L206.457 248Z" fill="#2F2E41"/>
<path d="M258 255.695L268.2 350H275L268.88 253L258 255.695Z" fill="#2F2E41"/>
<path d="M286 253.326L299.548 315H306L293.097 252L286 253.326Z" fill="#2F2E41"/>
<path d="M232.143 253L230 302H235.714L240 253H232.143Z" fill="#2F2E41"/>
<path d="M194.85 239.733C194.85 239.733 184.139 167.909 214.263 165.895C244.386 163.881 287.228 165.895 287.228 165.895C287.228 165.895 311.996 163.881 304.632 239.733C304.632 239.733 311.326 261.884 251.08 259.871C190.833 257.857 194.85 239.733 194.85 239.733Z" fill="#5E81F4"/>
<path d="M470 269.235C470 281.661 462.613 286 453.5 286C444.387 286 437 281.661 437 269.235C437 256.808 453.5 241 453.5 241C453.5 241 470 256.808 470 269.235Z" fill="#5E81F4"/>
<path d="M452.883 273.672L460 260.817L452.909 272.042L452.987 267.37L457.892 258.069L453.007 266.133L453.145 257.73L458.398 250.326L453.167 256.409L453.253 241L452.734 260.525L447.414 252.487L452.669 262.172L452.172 271.557L452.157 271.308L446 262.815L452.138 272.188L452.076 273.362L452.065 273.38L452.07 273.476L450.807 286H452.494L452.697 284.988L458.82 275.638L452.712 284.064L452.883 273.672Z" fill="#3F3D56"/>
<path d="M463.985 313H444.131L439 284H468L463.985 313Z" fill="#2F2E41"/>
</svg>
