<svg width="669" height="468" viewBox="0 0 669 468" fill="none" xmlns="http://www.w3.org/2000/svg">
<path opacity="0.2" d="M284.611 17.9841C257.417 7.64392 228.68 -0.993447 199.344 0.0923929C156.211 1.68414 114.806 25.949 94.5288 61.5781C77.3249 91.7657 75.2021 127.148 67.7911 160.649C58.6708 201.917 41.1707 241.149 22.4859 279.505C12.4523 300.111 1.8634 321.162 0.215826 343.748C-2.06733 375.108 13.958 406.357 39.0912 427.216C64.2245 448.075 97.6018 459.082 131.102 461.482C148.93 462.759 167.559 461.574 183.393 453.813C200.146 445.601 212.358 430.764 229.18 422.669C244.767 415.167 263.001 414.118 280.501 415.093C303.35 416.365 325.906 420.852 347.503 428.419C371.963 437.007 394.708 449.451 419.083 458.163C443.457 466.874 470.756 471.736 495.698 464.468C519.147 457.638 537.659 441.055 554.351 424.261C581.644 396.851 606.66 367.265 629.152 335.796C644.214 314.69 658.234 292.424 664.892 267.826C677.629 220.796 660.104 167.737 621.235 135.619C589.03 109.01 545.81 97.4602 503.504 90.4516C464.925 84.0599 420.317 83.6651 384.805 67.0073C350.94 51.1022 320.123 31.4954 284.611 17.9841Z" fill="#1B51E5"/>
</svg>
