<svg width="985" height="689" viewBox="0 0 985 689" fill="none" xmlns="http://www.w3.org/2000/svg">
<path opacity="0.2" d="M419.046 26.4766C379.007 11.2535 336.696 -1.46257 293.504 0.136023C229.997 2.47942 169.034 38.2026 139.179 90.6566C113.849 135.099 110.724 187.19 99.812 236.51C86.3838 297.266 60.6176 355.025 33.107 411.493C18.3341 441.83 2.74357 472.821 0.31777 506.074C-3.04383 552.243 20.551 598.248 57.5558 628.957C94.5607 659.667 143.704 675.871 193.028 679.404C219.276 681.284 246.705 679.54 270.018 668.114C294.685 656.024 312.665 634.18 337.432 622.263C360.381 611.218 387.229 609.674 412.995 611.109C446.637 612.982 479.847 619.587 511.644 630.728C547.659 643.372 581.148 661.692 617.035 674.517C652.922 687.342 693.116 694.5 729.839 683.8C764.364 673.745 791.62 649.33 816.196 624.606C856.382 584.253 893.214 540.695 926.33 494.366C948.507 463.293 969.149 430.513 978.952 394.299C997.704 325.06 971.902 246.947 914.673 199.661C867.256 160.486 803.622 143.483 741.333 133.165C684.531 123.755 618.852 123.174 566.566 98.6496C516.705 75.2338 471.332 46.3682 419.046 26.4766Z" fill="#1B51E5"/>
</svg>
