<svg width="13" height="13" viewBox="0 0 13 13" xmlns="http://www.w3.org/2000/svg">
<path d="M6.5 0C5.32292 0 4.22917 0.296875 3.21875 0.890625C2.23958 1.46354 1.46354 2.23958 0.890625 3.21875C0.296875 4.22917 0 5.32292 0 6.5C0 7.67708 0.296875 8.77083 0.890625 9.78125C1.46354 10.7604 2.23958 11.5365 3.21875 12.1094C4.22917 12.7031 5.32292 13 6.5 13C7.67708 13 8.77083 12.7031 9.78125 12.1094C10.7604 11.5365 11.5365 10.7604 12.1094 9.78125C12.7031 8.77083 13 7.67708 13 6.5C13 5.72917 12.8854 5.04688 12.6562 4.45312L11.8438 5.25C11.9479 5.66667 12 6.08333 12 6.5C12 7.5 11.75 8.42708 11.25 9.28125C10.7708 10.1146 10.1146 10.7708 9.28125 11.25C8.42708 11.75 7.5 12 6.5 12C5.5 12 4.57292 11.75 3.71875 11.25C2.88542 10.7708 2.22917 10.1146 1.75 9.28125C1.25 8.42708 1 7.5 1 6.5C1 5.5 1.25 4.57292 1.75 3.71875C2.22917 2.88542 2.88542 2.22917 3.71875 1.75C4.57292 1.25 5.5 1 6.5 1C7.23958 1 7.94271 1.14062 8.60938 1.42188C9.24479 1.68229 9.80729 2.05729 10.2969 2.54688L11 1.84375C10.4167 1.26042 9.73438 0.807292 8.95312 0.484375C8.18229 0.161458 7.36458 0 6.5 0ZM12.1406 2.14062L6.5 7.78125L4.35938 5.64062L3.64062 6.35938L6.14062 8.85938L6.5 9.20312L6.85938 8.85938L12.8594 2.85938L12.1406 2.14062Z"/>
</svg>
