<svg width="12" height="12" viewBox="0 0 12 12" xmlns="http://www.w3.org/2000/svg">
<path d="M3 0L1.35938 1.64062L0.71875 1L0 1.71875L1 2.71875L1.35938 3.0625L1.71875 2.71875L3.71875 0.71875L3 0ZM5.35938 0.859375V1.85938H11.8594V0.859375H5.35938ZM3 4L1.35938 5.64062L0.71875 5L0 5.71875L1 6.71875L1.35938 7.0625L1.71875 6.71875L3.71875 4.71875L3 4ZM5.35938 4.85938V5.85938H11.8594V4.85938H5.35938ZM3 8L1.35938 9.64062L0.71875 9L0 9.71875L1 10.7188L1.35938 11.0625L1.71875 10.7188L3.71875 8.71875L3 8ZM5.35938 8.85938V9.85938H11.8594V8.85938H5.35938Z"/>
</svg>
