<svg width="30" height="30" viewBox="0 0 30 30" fill="none" xmlns="http://www.w3.org/2000/svg">
<path d="M30 15C30 12.125 29.875 9.5 29.4375 8C28.9375 6.25 28.375 4.625 26.8125 3.1875C24.9375 1.5 23.25 0.9375 20.8125 0.4375C19 0.0625 16.875 0 15.5625 0H14.375C13.0625 0 10.9375 0.0625 9.125 0.4375C6.6875 0.9375 5 1.5 3.125 3.1875C1.625 4.625 1.125 6.25 0.5625 8C0.125 9.5 0 12.125 0 15C0 17.875 0.125 20.5 0.5625 22C1.0625 23.75 1.625 25.375 3.1875 26.8125C5.0625 28.5 6.75 29.0625 9.1875 29.5625C11.3125 30 13.8125 30 15 30C16.1875 30.0625 18.6875 30 20.8125 29.5625C23.25 29.0625 24.9375 28.5 26.8125 26.8125C28.375 25.375 28.9375 23.75 29.4375 22C29.875 20.5 30 17.875 30 15Z" fill="url(#paint0_linear_217_1301)"/>
<defs>
<linearGradient id="paint0_linear_217_1301" x1="15" y1="0" x2="15" y2="30.0206" gradientUnits="userSpaceOnUse">
<stop stop-color="#5E81F4"/>
<stop offset="1" stop-color="#5E81F4"/>
</linearGradient>
</defs>
</svg>
