<svg width="12" height="12" viewBox="0 0 12 12" fill="none" xmlns="http://www.w3.org/2000/svg">
<path d="M6 0C4.97917 0 4.02083 0.244792 3.125 0.734375C2.26042 1.20312 1.55208 1.84896 1 2.67188V1H0V4.5H3.5V3.5H1.6875C2.125 2.73958 2.71875 2.13542 3.46875 1.6875C4.25 1.22917 5.09375 1 6 1C6.90625 1 7.75 1.22917 8.53125 1.6875C9.28125 2.125 9.875 2.71875 10.3125 3.46875C10.7708 4.25 11 5.09375 11 6C11 6.90625 10.7708 7.75 10.3125 8.53125C9.875 9.28125 9.28125 9.875 8.53125 10.3125C7.75 10.7708 6.90625 11 6 11C5.09375 11 4.25 10.7708 3.46875 10.3125C2.71875 9.875 2.125 9.28125 1.6875 8.53125C1.22917 7.75 1 6.90625 1 6H0C0 7.08333 0.276042 8.09375 0.828125 9.03125C1.34896 9.9375 2.0625 10.6562 2.96875 11.1875C3.90625 11.7292 4.91667 12 6 12C7.08333 12 8.09375 11.7292 9.03125 11.1875C9.9375 10.6562 10.6562 9.9375 11.1875 9.03125C11.7292 8.09375 12 7.08333 12 6C12 4.91667 11.7292 3.90625 11.1875 2.96875C10.6562 2.0625 9.9375 1.34896 9.03125 0.828125C8.09375 0.276042 7.08333 0 6 0ZM5.5 2V6.5H9V5.5H6.5V2H5.5Z" fill="#5E81F4"/>
</svg>
