<svg width="12" height="12" viewBox="0 0 12 12" xmlns="http://www.w3.org/2000/svg">
<path d="M2.29688 0.5L2.21875 0.890625L2.15625 1.07812C2.09375 1.21354 2.02083 1.34375 1.9375 1.46875C1.82292 1.63542 1.70312 1.76042 1.57812 1.84375C1.42188 1.94792 1.22917 2 1 2V3C1.5625 3 2.0625 2.76562 2.5 2.29688V5.5H3.5V0.5H2.29688ZM9 0.5V9.84375L7.70312 8.54688L7 9.25L9.14062 11.4062L9.5 11.75L9.85938 11.4062L12 9.25L11.2969 8.54688L10 9.84375V0.5H9ZM2.25 6.5C1.9375 6.5 1.64583 6.57812 1.375 6.73438C1.10417 6.89062 0.890625 7.10417 0.734375 7.375C0.578125 7.64583 0.5 7.9375 0.5 8.25V8.5H1.5V8.25C1.5 8.03125 1.56771 7.85417 1.70312 7.71875C1.84896 7.57292 2.03125 7.5 2.25 7.5H2.75C2.96875 7.5 3.14583 7.57292 3.28125 7.71875C3.42708 7.85417 3.5 8.03125 3.5 8.25C3.5 8.36458 3.45833 8.48438 3.375 8.60938C3.29167 8.72396 3.17708 8.82812 3.03125 8.92188C2.77083 9.07812 2.41667 9.27604 1.96875 9.51562C1.71875 9.64062 1.53646 9.73438 1.42188 9.79688C1.14062 9.95312 0.9375 10.099 0.8125 10.2344C0.71875 10.3385 0.640625 10.4583 0.578125 10.5938C0.526042 10.7292 0.5 10.8646 0.5 11V11.5H4.5V10.5H2.21875L2.5 10.3594C2.92708 10.1406 3.27604 9.94792 3.54688 9.78125C3.82812 9.60417 4.05208 9.39062 4.21875 9.14062C4.40625 8.85938 4.5 8.5625 4.5 8.25C4.5 7.9375 4.42188 7.64583 4.26562 7.375C4.10938 7.10417 3.89583 6.89062 3.625 6.73438C3.35417 6.57812 3.0625 6.5 2.75 6.5H2.25Z"/>
</svg>
