<svg width="12" height="12" viewBox="0 0 12 12" xmlns="http://www.w3.org/2000/svg">
<path d="M1.59375 0L1.48438 0.328125L0.515625 3H0.5V3.03125L0 4.40625V5H1V4.57812L1.20312 4H2.79688L3 4.57812V5H4V4.40625L3.5 3.03125V3H3.48438L2.51562 0.328125L2.40625 0H1.59375ZM8.5 0V9.34375L7.20312 8.04688L6.5 8.75L8.64062 10.9062L9 11.25L9.35938 10.9062L11.5 8.75L10.7969 8.04688L9.5 9.34375V0H8.5ZM2 1.82812L2.42188 3H1.57812L2 1.82812ZM0 6V7H2.78125L0.140625 9.64062L0 9.79688V11H4V10H1.21875L3.85938 7.35938L4 7.20312V6H0Z"/>
</svg>
