<svg width="12" height="12" viewBox="0 0 12 12" xmlns="http://www.w3.org/2000/svg">
<path d="M2.09375 0.5L1.98438 0.828125L1.01562 3.5H1V3.53125L0.5 4.90625V5.5H1.5V5.07812L1.70312 4.5H3.29688L3.5 5.07812V5.5H4.5V4.90625L4 3.53125V3.5H3.98438L3.01562 0.828125L2.90625 0.5H2.09375ZM9 0.5V9.84375L7.70312 8.54688L7 9.25L9.14062 11.4062L9.5 11.75L9.85938 11.4062L12 9.25L11.2969 8.54688L10 9.84375V0.5H9ZM2.5 2.32812L2.92188 3.5H2.07812L2.5 2.32812ZM0.5 6.5V7.5H3.28125L0.640625 10.1406L0.5 10.2969V11.5H4.5V10.5H1.71875L4.35938 7.85938L4.5 7.70312V6.5H0.5Z"/>
</svg>
