<svg width="12" height="12" viewBox="0 0 12 12" xmlns="http://www.w3.org/2000/svg">
<path d="M9.35938 0.34375L11.5 2.5L10.7969 3.20312L9.5 1.90625V11.25H8.5V1.90625L7.20312 3.20312L6.5 2.5L8.64062 0.34375L9 0L9.35938 0.34375Z"/>
<path d="M4 6V7.20312L3.85938 7.35938L1.21875 10H4V11H0V9.79688L0.140625 9.64062L2.78125 7H0V6H4Z"/>
<path fill-rule="evenodd" clip-rule="evenodd" d="M2.51562 0.328125L3.48438 3H3.5V3.03125L4 4.40625V5H3V4.57812L2.79688 4H1.20312L1 4.57812V5H0V4.40625L0.5 3.03125V3H0.515625L1.48438 0.328125L1.59375 0H2.40625L2.51562 0.328125ZM1.57812 3H2.42188L2 1.82812L1.57812 3Z"/>
</svg>
