<svg width="12" height="12" viewBox="0 0 12 12" xmlns="http://www.w3.org/2000/svg">
<path d="M9.35938 0.34375L11.5 2.5L10.7969 3.20312L9.5 1.90625V11.25H8.5V1.90625L7.20312 3.20312L6.5 2.5L8.64062 0.34375L9 0L9.35938 0.34375Z"/>
<path d="M2.25 6C2.5625 6 2.85417 6.07812 3.125 6.23438C3.39583 6.39062 3.60938 6.60417 3.76562 6.875C3.92188 7.14583 4 7.4375 4 7.75C4 8.0625 3.90625 8.35938 3.71875 8.64062C3.55208 8.89062 3.32812 9.10417 3.04688 9.28125C2.77604 9.44792 2.42708 9.64062 2 9.85938L1.71875 10H4V11H0V10.5C0 10.3646 0.0260417 10.2292 0.078125 10.0938C0.140625 9.95833 0.21875 9.83854 0.3125 9.73438C0.4375 9.59896 0.640625 9.45312 0.921875 9.29688C1.03646 9.23438 1.21875 9.14062 1.46875 9.01562C1.91667 8.77604 2.27083 8.57812 2.53125 8.42188C2.67708 8.32812 2.79167 8.22396 2.875 8.10938C2.95833 7.98438 3 7.86458 3 7.75C3 7.53125 2.92708 7.35417 2.78125 7.21875C2.64583 7.07292 2.46875 7 2.25 7H1.75C1.53125 7 1.34896 7.07292 1.20312 7.21875C1.06771 7.35417 1 7.53125 1 7.75V8H0V7.75C0 7.4375 0.078125 7.14583 0.234375 6.875C0.390625 6.60417 0.604167 6.39062 0.875 6.23438C1.14583 6.07812 1.4375 6 1.75 6H2.25Z"/>
<path d="M3 5H2V1.79688C1.5625 2.26562 1.0625 2.5 0.5 2.5V1.5C0.729167 1.5 0.921875 1.44792 1.07812 1.34375C1.20312 1.26042 1.32292 1.13542 1.4375 0.96875C1.52083 0.84375 1.59375 0.713542 1.65625 0.578125L1.71875 0.390625L1.79688 0H3V5Z"/>
</svg>
